<?xml version="1.0" encoding="UTF-8" standalone="no"?>
<svg width="150px" height="150px" viewBox="0 0 150 150" version="1.1" xmlns="http://www.w3.org/2000/svg" xmlns:xlink="http://www.w3.org/1999/xlink">
    <!-- Generator: Sketch 39.1 (31720) - http://www.bohemiancoding.com/sketch -->
    <title>FCB</title>
    <desc>Created with Sketch.</desc>
    <defs>
        <polygon id="path-1" points="104.968744 105.9084 0 105.9084 0 0.0303404254 104.968744 0.0303404254"></polygon>
        <path d="M0.287420886,0.000888120758 C0.232041139,0.703946716 0.181313291,0.745244331 0.108101266,1.44452841 C-1.04313291,24.0982687 14.361962,33.6391279 34.3196044,34.4680776 C38.1056962,34.4881714 41.5369146,34.50771 44.5101424,34.4680776 C64.4677848,33.6391279 79.8728797,24.0982687 78.720981,1.44452841 C78.6485443,0.745244331 78.5977057,0.703946716 78.5424367,0.000888120758 L0.287420886,0.000888120758 L0.287420886,0.000888120758 Z" id="path-3"></path>
        <path d="M75.3966695,34.7430651 L1.36314106,34.7430651 L1.55940688,34.2922328 C4.77752397,26.8955191 7.19119486,15.6378114 0.414042958,4.00975729 L0.0638214387,3.40938766 L0.747096755,3.53039411 C2.43307777,3.82880269 4.06833093,3.97978321 5.60766638,3.97978321 C12.2181252,3.97978321 17.1392803,3.36009696 22.7324132,0.191282089 L22.8957835,0.0986955004 L23.056717,0.196388784 C27.9661316,3.1735916 32.9748974,4.62256061 38.3695493,4.62655716 C43.7780461,4.62256061 48.793679,3.1735916 53.7035366,0.196388784 L53.8640271,0.0986955004 L54.0281727,0.191282089 C59.6208626,3.36009696 64.5416854,3.97978321 71.1521442,3.97978321 C72.7404354,3.97978321 74.3804512,3.82003249 76.0247866,3.50408353 L76.7193594,3.37064339 L76.3626031,3.98266961 C69.5704987,15.6333708 71.9816221,26.8958521 75.201179,34.2922328 L75.3966695,34.7430651 L75.3966695,34.7430651 Z" id="path-5"></path>
        <path d="M1.5575653,33.3120798 L73.6355242,33.3120798 C70.5108881,25.9058188 68.3091001,14.9069983 74.6816476,3.47155538 C73.2262678,3.71434539 71.7780875,3.8372391 70.3685621,3.8372391 C63.7157931,3.8372391 58.7395906,3.21533254 53.0921856,0.0575081711 C48.1297172,3.03171358 43.055714,4.4800165 37.5859672,4.48401305 C32.12929,4.4800165 27.0625969,3.03171358 22.1012362,0.0575081711 C16.4531666,3.21533254 11.4771856,3.8372391 4.82408429,3.8372391 C3.45288175,3.8372391 2.0084672,3.72022919 0.521964033,3.48909577 C6.88653682,14.9062212 4.6818691,25.9039315 1.5575653,33.3120798 L1.5575653,33.3120798 Z" id="path-7"></path>
    </defs>
    <g id="Page-1" stroke="none" stroke-width="1" fill="none" fill-rule="evenodd">
        <g id="FCB">
            <g id="Group">
                <g id="Page-1" transform="translate(23.000000, 22.000000)">
                    <g id="Group-10" transform="translate(0.000000, 0.080708)">
                        <g id="Group-3">
                            <mask id="mask-2" fill="white">
                                <use xlink:href="#path-1"></use>
                            </mask>
                            <g id="Clip-2"></g>
                            <path d="M104.968744,52.538815 L102.34607,49.8109521 C96.3279525,43.5519211 87.8001361,27.9135577 98.5997405,13.5268896 L100.183823,11.4171587 L98.792462,9.17409871 C98.2395506,8.28309156 97.7637278,7.7031487 97.3047405,7.14363262 L97.2876835,7.12298382 C96.9345823,6.69169017 96.6010854,6.28426478 96.1413228,5.62783252 L94.4757215,3.25421878 L91.7389652,4.2016216 C89.5761646,4.95064044 87.3347247,5.34652027 85.2566551,5.34652027 C78.9018291,5.34652027 75.003981,4.76691046 70.0406266,1.47353666 L67.866307,0.0304514405 L65.7239968,1.52116213 C61.338807,4.57252303 57.1320506,5.99362726 52.4849146,5.99362726 C47.8373354,5.99362726 43.6300253,4.57241201 39.2447247,1.52127315 L37.1027468,0.0303404254 L34.9282057,1.47353666 C29.9651835,4.76702147 26.0672247,5.34652027 19.7121772,5.34652027 C17.6345506,5.34652027 15.3928892,4.95064044 13.2298671,4.2016216 L10.493443,3.25410776 L8.82806329,5.6277215 C8.36187658,6.29247989 8.02461392,6.70390183 7.66409177,7.14374364 C7.20399684,7.70448088 6.72828481,8.28431272 6.17670253,9.17376566 L4.78489873,11.4167146 L6.36931329,13.5267785 C17.1691392,27.9138908 8.64099051,43.5519211 2.6226519,49.8109521 L-2.21518987e-05,52.538815 L2.6751519,55.2142788 C3.41402848,55.9536393 4.62374367,57.2106633 5.60906013,58.2444358 L5.60263608,58.3284743 C4.99312658,69.8117646 8.00434494,79.2927868 14.5527785,86.5079908 C21.3398987,93.9861897 31.8754525,98.5284833 44.2688861,99.3323436 C47.1356741,101.905229 49.8832848,103.964004 50.2021614,104.201355 L52.498538,105.908434 L54.7976835,104.191363 C55.1167816,103.952015 57.8717025,101.872702 60.7005,99.3323436 C73.0940443,98.5284833 83.6292658,93.9861897 90.4164968,86.5078798 C96.9645981,79.2921207 99.9757057,69.8112096 99.3660854,58.3284743 L99.3597722,58.2446579 C100.350073,57.2053345 101.562889,55.9448692 102.29357,55.2145008 L104.968744,52.538815 Z" id="Fill-1" fill="#FFFFFF" mask="url(#mask-2)"></path>
                        </g>
                        <path d="M11.6207642,58.7167829 C11.1151472,68.4963246 13.6022516,76.4784209 19.0132959,82.4409306 C24.9795775,89.0150225 34.5413339,92.8956662 45.9375997,93.3688125 L46.7466978,93.4024501 L47.338375,93.9566374 C49.2088813,95.7080116 51.2185016,97.3422648 52.4896883,98.3418447 C53.7584383,97.3400445 55.7639604,95.7043481 57.6308117,93.9566374 L58.2224889,93.4024501 L59.031587,93.3688125 C70.4278528,92.8956662 79.9900522,89.0142454 85.9555585,82.4409306 C91.3673782,76.4780879 93.8543718,68.4963246 93.3480902,58.7164498 C93.3100997,58.379297 93.3035649,58.1939018 93.2962547,57.9713165 C93.2897199,57.7848111 93.2816345,57.5588954 93.2291345,57.0447845 L93.1277896,56.0477579 L93.8142769,55.3194989 C94.6203845,54.4643496 95.665068,53.3681866 96.5813813,52.4201177 C89.7273623,44.2676132 81.8182484,27.3384773 92.835163,11.2123136 C92.7746883,11.1380445 92.7118877,11.0613331 92.6462073,10.9808472 C92.5025522,10.8057764 92.3457168,10.6144974 92.1728212,10.3965747 C89.8600522,11.0492325 87.4977737,11.3903819 85.2566661,11.3903819 C78.4857168,11.3903819 73.5882642,10.7142999 67.9480585,7.29803242 C62.9704161,10.4850538 57.8978528,12.0374888 52.4849256,12.0374888 C47.0716661,12.0374888 41.9987706,10.4850538 37.0211282,7.29803242 C31.3805902,10.7142999 26.4831377,11.3903819 19.7121883,11.3903819 C17.471413,11.3903819 15.1086915,11.0492325 12.7968085,10.3965747 C12.623913,10.6141643 12.4666345,10.8057764 12.3229794,10.9808472 C12.2565237,11.0616662 12.1935016,11.1388217 12.1325839,11.2137568 C17.0588339,18.4532732 18.6813497,26.7857332 16.8231377,35.411273 C15.5227104,41.4483849 12.4236598,47.6627878 8.39068513,52.4237812 C9.3062231,53.371073 10.3495775,54.4653488 11.1542453,55.3194989 L11.8404003,56.0474249 L11.7397199,57.0441184 C11.6875522,57.5570082 11.6794668,57.7833679 11.6732642,57.9698733 C11.6656218,58.1932357 11.659087,58.3789639 11.6207642,58.7167829 L11.6207642,58.7167829 Z M52.4962231,103.833428 L51.1918085,102.863823 C51.054356,102.761467 47.9792294,100.469782 44.9498465,97.7049511 C32.7295301,97.0321996 22.3943402,92.673414 15.7817769,85.3873823 C9.5430269,78.5134386 6.6765712,69.4391758 7.26171361,58.4169311 L7.27411867,58.2747207 C7.29926108,58.0620158 7.30258386,57.9541092 7.30690348,57.8221122 C7.30878639,57.7610539 7.31100158,57.6966651 7.31421361,57.6239503 C6.11380222,56.3589333 4.66196677,54.84935 3.84888133,54.0358314 L2.32926108,52.5159237 L3.81897627,50.966486 C10.1773465,44.3538719 19.1704636,27.8101805 7.69688766,12.5256222 L6.79696677,11.3271033 L7.58745728,10.0533161 C8.0817769,9.25622767 8.50266297,8.74333794 8.94846994,8.20003006 C9.30987816,7.75907811 9.68380222,7.30313911 10.1872041,6.58542652 L11.1330902,5.23737023 L12.6873782,5.77557141 C15.0229636,6.58431637 17.4520301,7.01172449 19.7121883,7.01172449 C26.2649415,7.01172449 30.5595301,6.3697242 35.8454161,2.86198025 L37.0804953,2.04224479 L38.2970775,2.88906793 C42.9737864,6.14303137 47.4820301,7.65883148 52.4849256,7.65883148 C57.4871566,7.65883148 61.9949573,6.14303137 66.6714446,2.88906793 L67.8882484,2.04224479 L69.1234383,2.86198025 C74.4097674,6.3697242 78.7038022,7.01172449 85.2566661,7.01172449 C87.5168244,7.01172449 89.9462231,6.58431637 92.2814763,5.77557141 L93.8360965,5.23737023 L94.7823149,6.58575957 C95.2850522,7.30347216 95.6593085,7.75907811 96.0203845,8.20003006 C96.4661915,8.74333794 96.8870775,9.25656072 97.3817294,10.0536491 L98.1718877,11.3274363 L97.2722991,12.5256222 C85.7987231,27.8101805 94.7918402,44.3538719 101.149878,50.966486 L102.639593,52.5159237 L101.119973,54.0358314 C100.306555,54.8489059 98.8553845,56.3586002 97.6553054,57.6236172 C97.6582959,57.6971092 97.6604003,57.7621641 97.6626155,57.8239995 C97.6670459,57.9555524 97.6699256,58.063459 97.6947358,58.2758309 L97.7071408,58.4169311 C98.2921725,69.4388427 95.4258275,78.5131056 89.1874098,85.3873823 C82.5748465,92.673414 72.2393244,97.0321996 60.0193402,97.7049511 C56.9931693,100.468339 53.9349889,102.75858 53.7985332,102.860936 L52.4962231,103.833428 Z" id="Fill-4" fill="#221F1F"></path>
                        <path d="M52.4931218,101.105077 C52.4931218,101.105077 49.001318,98.5097661 45.8472199,95.5566536 C25.2135016,94.699284 8.13881804,83.0998718 9.44312184,58.5331195 C9.52009968,57.8846803 9.4544193,57.9280872 9.56639715,56.8229319 C8.38381804,55.5679063 6.42581171,53.5200108 5.39187184,52.4859052 C12.7937073,44.7877855 21.4297358,27.1779051 9.44245728,11.2093828 C10.2306218,9.93870407 10.8005902,9.51784585 11.9741978,7.8450704 C14.3700364,8.6746862 17.0347991,9.20111978 19.7121883,9.20111978 C26.5866978,9.20111978 31.2803528,8.51748883 37.0514763,4.68746806 C41.6129953,7.86161165 46.5607326,9.84811575 52.4849256,9.84811575 C58.4090079,9.84811575 63.3560807,7.86161165 67.9175997,4.68746806 C73.6886123,8.51748883 78.3823782,9.20111978 85.2567769,9.20111978 C87.9342769,9.20111978 90.5990396,8.6746862 92.9948782,7.8450704 C94.1677104,9.51784585 94.7384541,9.93870407 95.5266187,11.2093828 C83.5393402,27.1779051 92.1753687,44.7877855 99.5772041,52.4859052 C98.5432642,53.5200108 96.5852579,55.5679063 95.402568,56.8229319 C95.5146566,57.9280872 95.4489763,57.8846803 95.5258434,58.5331195 C96.8302579,83.0998718 79.7554636,94.699284 59.1217453,95.5566536 C55.9669826,98.5097661 52.4931218,101.105077 52.4931218,101.105077" id="Fill-6" fill="#E5B721"></path>
                        <path d="M52.4931218,101.105077 C52.4931218,101.105077 49.001318,98.5097661 45.8472199,95.5566536 C25.2135016,94.699284 8.13881804,83.0998718 9.44312184,58.5331195 C9.52009968,57.8846803 9.4544193,57.9280872 9.56639715,56.8229319 C8.38381804,55.5679063 6.42581171,53.5200108 5.39187184,52.4859052 C12.7937073,44.7877855 21.4297358,27.1779051 9.44245728,11.2093828 C10.2306218,9.93870407 10.8005902,9.51784585 11.9741978,7.8450704 C14.3700364,8.6746862 17.0347991,9.20111978 19.7121883,9.20111978 C26.5866978,9.20111978 31.2803528,8.51748883 37.0514763,4.68746806 C41.6129953,7.86161165 46.5607326,9.84811575 52.4849256,9.84811575 C58.4090079,9.84811575 63.3560807,7.86161165 67.9175997,4.68746806 C73.6886123,8.51748883 78.3823782,9.20111978 85.2567769,9.20111978 C87.9342769,9.20111978 90.5990396,8.6746862 92.9948782,7.8450704 C94.1677104,9.51784585 94.7384541,9.93870407 95.5266187,11.2093828 C83.5393402,27.1779051 92.1753687,44.7877855 99.5772041,52.4859052 C98.5432642,53.5200108 96.5852579,55.5679063 95.402568,56.8229319 C95.5146566,57.9280872 95.4489763,57.8846803 95.5258434,58.5331195 C96.8302579,83.0998718 79.7554636,94.699284 59.1217453,95.5566536 C55.9669826,98.5097661 52.4931218,101.105077 52.4931218,101.105077 L52.4931218,101.105077 Z" id="Stroke-8"></path>
                    </g>
                    <g id="Group-19" transform="translate(13.069620, 57.475512)">
                        <mask id="mask-4" fill="white">
                            <use xlink:href="#path-3"></use>
                        </mask>
                        <g id="Clip-12"></g>
                        <polygon id="Fill-11" fill="#0255A2" mask="url(#mask-4)" points="-0.244556962 34.50771 11.150269 34.50771 11.150269 0.000888120758 -0.244556962 0.000888120758"></polygon>
                        <polygon id="Fill-13" fill="#A31D49" mask="url(#mask-4)" points="11.1481646 34.50771 22.5429905 34.50771 22.5429905 0.000888120758 11.1481646 0.000888120758"></polygon>
                        <polygon id="Fill-14" fill="#0255A2" mask="url(#mask-4)" points="22.5407753 34.50771 33.9356013 34.50771 33.9356013 0.000888120758 22.5407753 0.000888120758"></polygon>
                        <polygon id="Fill-15" fill="#A31D49" mask="url(#mask-4)" points="33.9333861 34.50771 45.328212 34.50771 45.328212 0.000888120758 33.9333861 0.000888120758"></polygon>
                        <polygon id="Fill-16" fill="#0255A2" mask="url(#mask-4)" points="45.3259968 34.50771 56.7208228 34.50771 56.7208228 0.000888120758 45.3259968 0.000888120758"></polygon>
                        <polygon id="Fill-17" fill="#A31D49" mask="url(#mask-4)" points="56.7186076 34.50771 68.1142089 34.50771 68.1142089 0.000888120758 56.7186076 0.000888120758"></polygon>
                        <polygon id="Fill-18" fill="#0255A2" mask="url(#mask-4)" points="68.1112184 34.50771 79.5060443 34.50771 79.5060443 0.000888120758 68.1112184 0.000888120758"></polygon>
                    </g>
                    <g id="Group-30" transform="translate(12.737342, 9.183946)">
                        <path d="M0.913389241,48.6146868 C0.891126582,48.8286129 0.868863924,48.9700461 0.845161392,49.1221368 C0.819686709,49.285995 0.791886076,49.462509 0.759765823,49.7689107 C0.290367089,59.0182443 2.58774051,66.5053244 7.58986076,72.0042351 C13.3460316,78.3330946 22.7086424,81.9409742 34.6649082,82.4374337 L35.1339747,82.439654 C38.661,82.4579715 41.9935316,82.4761779 44.8372816,82.4374337 C56.7851297,81.9409742 66.1481835,78.3330946 71.9042437,72.0042351 C76.9060316,66.5049913 79.2034051,59.0182443 78.7321234,49.7517034 C78.701443,49.462176 78.6737532,49.2852179 78.6482785,49.1210266 C78.6249082,48.96938 78.6029778,48.8281688 78.5811582,48.6146868 L0.913389241,48.6146868 Z M40.8349873,83.1043013 C39.0282785,83.1043013 37.1099241,83.094088 35.1303196,83.0838746 L34.6498449,83.0809882 C22.5069494,82.5770907 12.9896076,78.8968292 7.11492405,72.4381931 C1.99307278,66.8073964 -0.360455696,59.1634521 0.119243671,49.7188429 C0.154686709,49.3799138 0.183484177,49.1941856 0.210509494,49.0223342 C0.24185443,48.822396 0.269876582,48.6421075 0.299449367,48.2673205 L0.32281962,47.9704662 L79.1712848,47.9704662 L79.1946551,48.2673205 C79.2238956,48.6417745 79.2523608,48.822396 79.2837057,49.0220012 C79.3099557,49.1941856 79.3390854,49.3799138 79.3726456,49.7016356 C79.8542278,59.1634521 77.5006994,66.8073964 72.3791804,72.43786 C66.5049399,78.8968292 56.9872658,82.5770907 44.8547816,83.0809882 C43.5993228,83.0977514 42.2510475,83.1043013 40.8349873,83.1043013 L40.8349873,83.1043013 Z" id="Fill-20" fill="#221F1F"></path>
                        <path d="M28.8397785,65.1168253 C28.8397785,59.0629501 33.7360127,54.1546397 39.7759494,54.1546397 C45.8158861,54.1546397 50.7121203,59.0629501 50.7121203,65.1168253 C50.7121203,71.1707004 45.8158861,76.0790108 39.7759494,76.0790108 C33.7360127,76.0790108 28.8397785,71.1707004 28.8397785,65.1168253" id="Fill-22" fill="#E5B721"></path>
                        <path d="M39.7760712,54.2023873 C33.7719098,54.2023873 28.8871946,59.0987081 28.8871946,65.1167254 C28.8871946,71.1347426 33.7719098,76.0311744 39.7760712,76.0311744 C45.7799003,76.0311744 50.6649478,71.1347426 50.6649478,65.1167254 C50.6649478,59.0987081 45.7799003,54.2023873 39.7760712,54.2023873 M39.7760712,76.1262033 C33.7197421,76.1262033 28.7923845,71.1874748 28.7923845,65.1167254 C28.7923845,59.0460869 33.7197421,54.1073584 39.7760712,54.1073584 C45.8324003,54.1073584 50.7597579,59.0460869 50.7597579,65.1167254 C50.7597579,71.1874748 45.8324003,76.1262033 39.7760712,76.1262033" id="Fill-24" fill="#221F1F"></path>
                        <path d="M39.7057168,54.1097341 C45.7382326,54.1097341 50.628375,59.0112726 50.628375,65.0583758 C50.628375,71.1055901 45.7382326,76.0079056 39.7057168,76.0079056 C33.6732009,76.0079056 28.7829478,71.1055901 28.7829478,65.0583758 C28.7829478,59.0112726 33.6732009,54.1097341 39.7057168,54.1097341 M34.1311915,67.0449909 C32.1544668,65.2411067 32.1484858,61.5743891 32.6795775,59.1386069 C32.8267769,58.4608598 33.0128528,57.7967675 33.2047991,57.0382013 C30.8807326,58.9326739 29.3963339,61.8221748 29.3963339,65.0583758 C29.3963339,66.4287462 29.6622674,67.7360599 30.1456218,68.9325806 C30.3204003,68.9558938 30.4997199,68.9677724 30.6812547,68.9677724 C32.2075206,68.9677724 33.4543402,68.2617164 34.1311915,67.0449909 M44.7446092,67.8364176 C44.4062389,69.5683641 42.5586598,70.8660195 40.8180744,71.906786 C39.0228845,72.9790808 36.1295142,73.5339343 33.9526472,73.634958 C35.5960965,74.7446649 37.5751472,75.3923269 39.7057168,75.3923269 C43.593375,75.3923269 46.9782959,73.2350816 48.7346092,70.0505026 C48.4268085,67.5002639 46.0085965,67.2014112 44.7446092,67.8364176 M33.1525206,73.0359205 C35.3032484,73.0531279 38.6089763,72.5110412 40.5035174,71.3781321 C42.9524098,69.9142871 44.8544826,68.3515276 43.9504636,66.1838469 C43.4940237,65.0899041 41.9752896,63.8228888 40.0059858,65.2194587 C39.8804953,66.8375037 37.888818,68.2639367 36.4590237,68.0797626 C35.7343244,67.986954 35.1270301,67.7578189 34.6211915,67.4261058 C33.8174098,68.8015828 32.3785332,69.5833511 30.6812547,69.5833511 C30.5976313,69.5833511 30.5138972,69.5810198 30.4317136,69.5765792 C31.0832009,70.9184186 32.0154636,72.0969549 33.1525206,73.0359205 M39.6795775,58.6189453 C41.3843877,57.9097808 43.7479953,58.8315392 45.5483908,59.8394452 C47.2479953,60.7910666 49.0238022,62.5679742 49.9963813,64.4332498 C49.6759541,59.0464644 45.238375,54.7716061 39.7946566,54.7252018 C38.1682642,55.7960534 38.3901155,57.8147519 39.6795775,58.6189453 M39.3903845,65.2126868 C37.2799731,63.669466 37.4092294,61.2403447 38.3176788,59.7982586 C38.5403054,59.4441205 38.8002579,59.1662497 39.0886756,58.9528787 C37.8604636,57.9711722 37.6154636,56.0655981 38.8047991,54.7641681 C37.0275522,54.9184791 35.3787864,55.5241775 33.9750206,56.4676947 C33.5245617,58.4077945 32.9516028,60.1808166 32.9799573,62.2070641 C33.0188339,64.9393676 34.1468085,67.1625559 36.5366661,67.4695127 C37.6520142,67.6132772 39.2619035,66.4227513 39.3903845,65.2126868 M49.9717927,66.008665 C49.3838813,63.8716245 47.2689288,61.507669 45.2488972,60.3763142 C42.758913,58.9820756 40.0344509,58.2235095 38.836144,60.1261972 C38.0673623,61.3474743 37.9605902,63.3653956 39.7049415,64.6802584 C42.0754161,63.0382341 43.969182,64.6354083 44.5167769,65.9472737 C44.6923307,66.3680209 44.7804953,66.7678973 44.7961123,67.148235 C46.1961123,66.6541068 48.4708908,66.9722761 49.1708908,69.1610497 C49.5945459,68.1801203 49.8708908,67.1198151 49.9717927,66.008665" id="Fill-26" fill="#221F1F"></path>
                        <path d="M3.22090823,33.9720067 C6.97931013,25.3340332 8.37787025,14.2408498 2.05848734,3.3985606 C3.63703165,3.67776357 5.29543354,3.8530564 6.97487975,3.8530564 C13.4436772,3.8530564 18.5370633,3.26378828 24.2572373,0.0230356322 C28.7672532,2.75755945 33.8196582,4.49550076 39.7363196,4.49994136 C45.6746899,4.49550076 50.7270949,2.75755945 55.237,0.0230356322 C60.9572848,3.26378828 66.0506709,3.8530564 72.5194684,3.8530564 C74.1988038,3.8530564 75.8565411,3.67776357 77.4522532,3.37158394 C71.1164778,14.2394066 72.5142627,25.3340332 76.2734399,33.9720067 L3.22090823,33.9720067" id="Fill-28" fill="#FFFFFF"></path>
                    </g>
                    <g id="Group-57" transform="translate(14.104478, 8.735120)">
                        <g id="Fill-31-+-Fill-33-+-Fill-34-+-Fill-35-+-Fill-36-+-Fill-37-+-Fill-38-+-Fill-39-+-Fill-40-+-Fill-41-+-Fill-42-+-Fill-46-Mask">
                            <mask id="mask-6" fill="white">
                                <use xlink:href="#path-5"></use>
                            </mask>
                            <use id="Mask" fill="#000000" xlink:href="#path-5"></use>
                            <g mask="url(#mask-6)">
                                <g transform="translate(0.783582, 0.786765)">
                                    <mask id="mask-8" fill="white">
                                        <use xlink:href="#path-7"></use>
                                    </mask>
                                    <use id="Mask" stroke="none" fill="#FFFFFF" fill-rule="evenodd" xlink:href="#path-7"></use>
                                    <polygon id="Fill-31" stroke="none" fill="#E11D37" fill-rule="evenodd" mask="url(#mask-8)" points="15.0050416 33.6341235 25.8761966 33.6341235 25.8761966 -0.314847558 15.0050416 -0.314847558"></polygon>
                                    <polygon id="Fill-33" stroke="none" fill="#E11D37" fill-rule="evenodd" mask="url(#mask-8)" points="1.13296878 23.6401006 37.4594245 23.6401006 37.4594245 12.7430809 1.13296878 12.7430809"></polygon>
                                    <polygon id="Fill-34" stroke="none" fill="#FDDB00" fill-rule="evenodd" mask="url(#mask-8)" points="68.4047409 33.6341235 74.8960226 33.6341235 74.8960226 -0.314847558 68.4047409 -0.314847558"></polygon>
                                    <polygon id="Fill-35" stroke="none" fill="#FDDB00" fill-rule="evenodd" mask="url(#mask-8)" points="37.15982 33.6341235 41.0655321 33.6341235 41.0655321 -0.314847558 37.15982 -0.314847558"></polygon>
                                    <polygon id="Fill-36" stroke="none" fill="#E11D37" fill-rule="evenodd" mask="url(#mask-8)" points="41.0654213 33.6341235 44.9711333 33.6341235 44.9711333 -0.314847558 41.0654213 -0.314847558"></polygon>
                                    <polygon id="Fill-37" stroke="none" fill="#FDDB00" fill-rule="evenodd" mask="url(#mask-8)" points="44.9710226 33.6341235 48.8767346 33.6341235 48.8767346 -0.314847558 44.9710226 -0.314847558"></polygon>
                                    <polygon id="Fill-38" stroke="none" fill="#E11D37" fill-rule="evenodd" mask="url(#mask-8)" points="48.8766238 33.6341235 52.7823359 33.6341235 52.7823359 -0.314847558 48.8766238 -0.314847558"></polygon>
                                    <polygon id="Fill-39" stroke="none" fill="#FDDB00" fill-rule="evenodd" mask="url(#mask-8)" points="52.7830004 33.6341235 56.6886017 33.6341235 56.6886017 -0.314847558 52.7830004 -0.314847558"></polygon>
                                    <polygon id="Fill-40" stroke="none" fill="#E11D37" fill-rule="evenodd" mask="url(#mask-8)" points="56.6879371 33.6341235 60.5937599 33.6341235 60.5937599 -0.314847558 56.6879371 -0.314847558"></polygon>
                                    <polygon id="Fill-41" stroke="none" fill="#FDDB00" fill-rule="evenodd" mask="url(#mask-8)" points="60.594203 33.6341235 64.499915 33.6341235 64.499915 -0.314847558 60.594203 -0.314847558"></polygon>
                                    <polygon id="Fill-42" stroke="none" fill="#E11D37" fill-rule="evenodd" mask="url(#mask-8)" points="64.499915 33.6341235 68.405627 33.6341235 68.405627 -0.314847558 64.499915 -0.314847558"></polygon>
                                    <polygon id="Fill-46" stroke="none" fill="#221F1F" fill-rule="evenodd" mask="url(#mask-8)" points="37.1365606 33.6342345 37.7792979 33.6342345 37.7792979 4.28184346 37.1365606 4.28184346"></polygon>
                                </g>
                            </g>
                        </g>
                        <polygon id="Fill-48" fill="#221F1F" points="28.9264053 38.5818006 28.9264053 36.6320425 21.8128768 36.6320425 21.8128768 46.5953142 23.8007882 46.5953142 23.8007882 42.3960572 26.7965002 42.3960572 26.7965002 40.460509 23.8007882 40.460509 23.8007882 38.5818006"></polygon>
                        <path d="M21.9306252,46.4771386 L23.6829512,46.4771386 L23.6829512,42.2779926 L26.6785525,42.2779926 L26.6785525,40.5786846 L23.6829512,40.5786846 L23.6829512,38.463514 L28.8084575,38.463514 L28.8084575,36.749885 L21.9306252,36.749885 L21.9306252,46.4771386 Z M23.9186474,46.7133787 L21.694929,46.7133787 L21.694929,36.5137559 L29.044043,36.5137559 L29.044043,38.6997541 L23.9186474,38.6997541 L23.9186474,40.3424445 L26.9141379,40.3424445 L26.9141379,42.5142328 L23.9186474,42.5142328 L23.9186474,46.7133787 Z" id="Fill-49" fill="#221F1F"></path>
                        <path d="M41.2819812,38.6814033 C40.6574085,37.3860792 39.5211268,36.4755334 37.6467439,36.4755334 C35.0485477,36.4755334 33.2309844,38.5818228 33.2309844,41.6128679 C33.2309844,44.7585916 34.9775509,46.7509795 37.5758578,46.7509795 C39.3792439,46.7509795 40.5722344,45.9115944 41.2536268,44.5024798 L39.5779464,43.5065634 C39.0527249,44.3885783 38.5276142,44.7728016 37.6325667,44.7728016 C36.1421869,44.7728016 35.2756047,43.4069829 35.2756047,41.6128679 C35.2756047,39.7633564 36.1272344,38.4538224 37.6183895,38.4538224 C38.5133262,38.4538224 39.0811901,38.8521445 39.4359528,39.5349984 L41.2819812,38.6814033" id="Fill-50" fill="#221F1F"></path>
                        <path d="M54.871717,43.3784964 C54.871717,42.2823333 54.2756094,41.5567387 53.4799132,41.2010463 C54.1336157,40.8027242 54.5310208,40.1190932 54.5310208,39.2654981 C54.5310208,37.5575309 53.3095651,36.6319981 51.3784733,36.6319981 L46.8207202,36.6319981 L46.8207202,46.5952698 L51.3359417,46.5952698 C53.465736,46.5952698 54.871717,45.4705758 54.871717,43.3784964 M52.514755,39.4219184 C52.514755,39.9767718 52.2167012,40.3608841 51.3926506,40.3608841 L48.7659892,40.3608841 L48.7659892,38.4679657 L51.2940746,38.4679657 C52.1598816,38.4679657 52.514755,38.7952382 52.514755,39.4219184 M52.826986,43.4069162 C52.826986,44.1894616 52.3727613,44.7023514 51.4068278,44.7023514 L48.7659892,44.7023514 L48.7659892,42.1258021 L51.4068278,42.1258021 C52.3727613,42.1258021 52.826986,42.5525441 52.826986,43.4069162" id="Fill-51" fill="#221F1F"></path>
                        <path d="M48.8834275,40.2433857 L51.3931268,40.2433857 C52.0781743,40.2433857 52.3969401,39.9822782 52.3969401,39.421874 C52.3969401,39.0086758 52.2655794,38.5868185 51.2938863,38.5868185 L48.8834275,38.5868185 L48.8834275,40.2433857 Z M51.3931268,40.4796258 L48.6485066,40.4796258 L48.6485066,38.3505783 L51.2938863,38.3505783 C52.1941395,38.3505783 52.631861,38.701164 52.631861,39.421874 C52.631861,39.9044566 52.4173199,40.4796258 51.3931268,40.4796258 L51.3931268,40.4796258 Z" id="Fill-52" fill="#221F1F"></path>
                        <path d="M48.8834275,44.5843423 L51.4069718,44.5843423 C52.2590445,44.5843423 52.7099464,44.177361 52.7099464,43.4070273 C52.7099464,42.6132693 52.2954844,42.2440331 51.4069718,42.2440331 L48.8834275,42.2440331 L48.8834275,44.5843423 Z M51.4069718,44.8205825 L48.6485066,44.8205825 L48.6485066,42.007793 L51.4069718,42.007793 C52.4276205,42.007793 52.9448673,42.478719 52.9448673,43.4070273 C52.9448673,44.3053614 52.384535,44.8205825 51.4069718,44.8205825 L51.4069718,44.8205825 Z" id="Fill-53" fill="#221F1F"></path>
                        <path d="M22.0094195,46.4654376 L23.7366031,46.4654376 L23.7366031,42.2662917 L26.7332012,42.2662917 L26.7332012,40.5910739 L23.7366031,40.5910739 L23.7366031,38.451813 L28.8631062,38.451813 L28.8631062,36.7623853 L22.0094195,36.7623853 L22.0094195,46.4654376 Z M23.9963341,46.725768 L21.7496885,46.725768 L21.7496885,36.5020549 L29.1228373,36.5020549 L29.1228373,38.7121434 L23.9963341,38.7121434 L23.9963341,40.3307435 L26.9929322,40.3307435 L26.9929322,42.5266221 L23.9963341,42.5266221 L23.9963341,46.725768 Z" id="Fill-54" fill="#221F1F"></path>
                        <path d="M37.7133104,36.6058762 C35.1897661,36.6058762 33.4272502,38.6649842 33.4272502,41.6133231 C33.4272502,44.6552477 35.0817756,46.621214 37.6422028,46.621214 C39.2658262,46.621214 40.4447502,45.9253714 41.1501775,44.5528918 L39.6881521,43.6845317 C39.1403357,44.5594417 38.5734686,44.9031444 37.6991331,44.9031444 C36.2115224,44.9031444 35.2124718,43.5810656 35.2124718,41.6133231 C35.2124718,39.6149403 36.1827249,38.3239458 37.6848452,38.3239458 C38.5399085,38.3239458 39.1534053,38.6649842 39.5575667,39.3662665 L41.1721078,38.61969 C40.4819654,37.2834013 39.3191015,36.6058762 37.7133104,36.6058762 M37.6422028,46.8815444 C34.9238325,46.8815444 33.1675192,44.8135552 33.1675192,41.6133231 C33.1675192,38.5117834 35.0365857,36.3455458 37.7133104,36.3455458 C39.4489116,36.3455458 40.7467914,37.133864 41.465399,38.6251298 L41.5229939,38.744693 L39.4438167,39.7059727 L39.3868863,39.5955127 C39.033785,38.9151012 38.4767756,38.5841652 37.6848452,38.5841652 C36.3202882,38.5841652 35.472092,39.74505 35.472092,41.6133231 C35.472092,43.4253114 36.3672502,44.642814 37.6991331,44.642814 C38.5139907,44.642814 39.0111901,44.3167627 39.5327566,43.4399654 L39.5992123,43.3285063 L41.4894338,44.451979 L41.4369338,44.5594417 C40.6920762,46.1005532 39.4153515,46.8815444 37.6422028,46.8815444" id="Fill-55" fill="#221F1F"></path>
                        <path d="M47.0172407,46.4654376 L51.4025414,46.4654376 C53.5349939,46.4654376 54.8080635,45.3115467 54.8080635,43.3788849 C54.8080635,42.0992139 53.9844559,41.5398089 53.4934591,41.32011 L53.2672882,41.2191973 L53.4788388,41.0901977 C54.1164812,40.7010898 54.4673673,40.0533168 54.4673673,39.2657757 C54.4673673,37.6749294 53.3657534,36.7623853 51.4448515,36.7623853 L47.0172407,36.7623853 L47.0172407,46.4654376 Z M51.4025414,46.725768 L46.7575097,46.725768 L46.7575097,36.5020549 L51.4448515,36.5020549 C53.4999939,36.5020549 54.7270983,37.5352724 54.7270983,39.2657757 C54.7270983,40.0539828 54.3937123,40.7409443 53.8042502,41.1837835 C54.6103578,41.6272888 55.0677945,42.4154959 55.0677945,43.3788849 C55.0677945,45.4746279 53.6976996,46.725768 51.4025414,46.725768 L51.4025414,46.725768 Z" id="Fill-56" fill="#221F1F"></path>
                    </g>
                    <g id="Group-43" transform="translate(29.619072, 9.183946)">
                        <g id="Fill-31-+-Fill-33-+-Fill-34-+-Fill-35-+-Fill-36-+-Fill-37-+-Fill-38-+-Fill-39-+-Fill-40-+-Fill-41-+-Fill-42-Mask"></g>
                    </g>
                </g>
                <rect id="Rectangle" x="0" y="0" width="150" height="150"></rect>
            </g>
        </g>
    </g>
</svg>