<?xml version="1.0" encoding="UTF-8" standalone="no"?>
<svg width="150px" height="150px" viewBox="0 0 150 150" version="1.1" xmlns="http://www.w3.org/2000/svg" xmlns:xlink="http://www.w3.org/1999/xlink">
    <!-- Generator: Sketch 39.1 (31720) - http://www.bohemiancoding.com/sketch -->
    <title>SDS</title>
    <desc>Created with Sketch.</desc>
    <defs></defs>
    <g id="Page-1" stroke="none" stroke-width="1" fill="none" fill-rule="evenodd">
        <g id="SDS">
            <g id="Group">
                <g id="Page-1" transform="translate(7.000000, 16.000000)">
                    <g id="Group-3" transform="translate(0.000000, 0.033797)" fill="#FEFEFE">
                        <path d="M117.010663,77.3785999 L116.908118,77.8317902 C116.432402,79.9529514 116.21459,80.9211657 113.337935,83.7874025 C110.676779,86.4385659 105.893405,85.2257057 103.322843,84.5735725 L103.076503,84.5113548 C101.327457,84.0704544 99.3232049,82.8026736 97.5552687,81.683908 L95.7287354,80.5566931 C92.1597093,78.4735538 90.6057296,77.3828246 89.9152861,76.8201773 C89.8420397,76.2993924 89.7969354,75.7851366 89.7969354,75.2923882 C89.7969354,72.6277827 90.7028774,70.5192955 90.7148281,70.4931794 L90.7418136,70.4298096 L90.7668716,70.3599107 C91.9542339,66.8672727 96.4396107,62.9817418 96.4847151,62.9429517 C96.4847151,62.9429517 96.6315933,62.8165961 96.6473991,62.803154 C98.5259759,63.9376661 100.729921,65.1977656 102.945817,66.2270454 C104.962019,67.1633827 115.094306,71.8581272 116.575425,72.3216872 C116.942043,72.436521 117.295938,72.8044501 117.526472,73.0755962 C117.526472,73.0959513 117.528785,73.100176 117.528785,73.1224514 C117.528785,73.8771285 117.415831,75.6053967 117.010663,77.3785999 L117.010663,77.3785999 Z M80.1615672,31.143969 L80.1615672,34.1308006 C79.352773,33.5439575 78.1700368,32.9571144 76.6445846,32.9571144 C75.2370977,32.9571144 74.8068716,33.0853903 73.7694716,33.45716 L72.8253643,33.7847629 C70.9922774,34.3934973 65.9814542,36.3982884 65.7694252,36.4835497 C65.7694252,36.4835497 65.730489,36.4992961 65.7266339,36.5004483 L65.7266339,35.3348274 L66.714689,35.3348274 L66.714689,28.5162333 L65.8284078,28.5162333 L65.8284078,28.3603051 C66.611373,28.4939578 67.4043614,28.5669291 68.2031325,28.5669291 C71.980718,28.5669291 75.5354803,27.0979012 78.2128281,24.4309913 C79.3311846,23.3168344 80.2255614,22.0444449 80.9040542,20.6733522 C81.2051354,20.8338891 81.5305035,20.9483388 81.8088397,21.0455059 L82.8497093,21.4314858 L83.9954368,21.9680171 C84.7930513,22.3363302 85.6596716,22.7438175 86.5960687,23.2346456 C84.7741614,22.5571645 83.5158658,22.2764169 83.4113933,22.2537574 L83.3743846,22.2456922 L83.3373759,22.2399313 C82.3728368,22.0774741 80.758718,21.8059439 80.416773,23.3974869 C80.3843904,23.5507267 80.3685846,23.6924447 80.3685846,23.8245612 C80.3685846,25.0631534 81.7305817,25.4145679 82.8466252,25.7026126 C84.3713064,26.0962737 86.587973,27.1720247 88.3100339,28.1767246 C88.1496629,28.2347176 80.1615672,31.143969 80.1615672,31.143969 L80.1615672,31.143969 Z M70.7652136,69.5384072 C70.3889586,69.427414 69.936373,69.2995222 69.4016745,69.1520433 C69.5551064,69.0798401 71.6599759,68.087046 71.6599759,68.087046 C71.6599759,68.087046 72.5227412,67.6799428 72.9834223,67.4629492 C72.222431,68.1081693 71.4853412,68.8056215 70.7652136,69.5384072 L70.7652136,69.5384072 Z M69.3191759,69.1293838 C69.2262687,69.1040358 69.1217962,69.0756154 69.0238774,69.0487313 C69.1256513,69.0076369 69.2366774,68.963086 69.3191759,68.9300568 L69.3191759,69.1293838 Z M82.304602,15.6963238 C82.5898774,15.8380418 82.8127006,15.9482669 82.8127006,15.9482669 C85.1581267,17.0862355 87.4175846,18.1869503 90.8443586,21.1100279 C90.5957064,20.9606288 90.3593904,20.8200629 90.1411933,20.6921711 C86.6423296,18.642445 83.9133238,17.5943464 82.0093035,17.5605491 C82.1469296,16.9487422 82.2494745,16.3281019 82.304602,15.6963238 L82.304602,15.6963238 Z M97.7171817,41.9909643 C97.7171817,41.9909643 100.09499,44.0717992 100.866005,44.0717992 C99.2592107,44.7439035 98.6493383,44.9359333 98.6493383,44.9359333 C98.6493383,44.9359333 97.4280513,43.0793892 97.7171817,41.9909643 L97.7171817,41.9909643 Z M51.8522281,42.6880325 L51.8522281,42.5121332 L51.8865383,42.5121332 C51.8776716,42.5574522 51.8522281,42.6876484 51.8522281,42.6880325 L51.8522281,42.6880325 Z M43.8772397,44.8161067 L43.8772397,44.7757805 C43.8772397,44.7757805 39.607747,46.3020333 38.1316397,46.8297312 C37.4816745,45.4578703 36.2788919,43.484188 34.2958426,41.9421888 L34.2958426,41.5001362 L34.8370948,41.5001362 L36.1374107,41.5001362 L36.1374107,42.6027713 L41.9639672,42.6027713 C42.9543354,42.6027713 43.7083875,42.1008054 44.2716136,41.5039768 L45.5823383,41.5039768 L45.5823383,42.5121332 L50.4262368,42.5121332 C50.0819788,42.6327279 45.7774049,44.147459 43.8772397,44.8161067 L43.8772397,44.8161067 Z M34.1242919,62.7755018 L31.8887354,61.0937048 L34.1242919,60.3263537 L34.1242919,62.7755018 Z M132.186156,45.7148062 C131.681141,45.2262824 130.93557,45.094934 130.23973,45.371841 L129.927469,45.4962763 L129.689611,45.7336251 C129.160309,46.2617071 126.478721,48.6359635 123.024576,51.487606 C122.117863,52.2361382 121.206138,53.0814534 120.348385,53.9248483 C121.422793,51.7518391 122.504141,49.3675971 122.689185,42.3139584 L122.689185,42.3116541 C122.689185,38.012875 121.091643,34.5955127 118.068495,32.3856337 C117.305961,31.8279792 116.598941,31.3590424 115.938567,30.9515552 C118.42239,30.0632253 122.264741,28.6894441 122.264741,28.6894441 L122.347625,27.6367368 C122.367286,27.3824893 122.432051,26.4668912 122.432051,25.2194657 C122.432051,22.6789114 122.164509,18.7641919 120.708448,16.2704929 C118.478289,12.4490999 116.272802,11.6149224 114.50024,10.9443544 L114.404634,10.9082528 C112.07193,10.0245316 106.856402,11.0403693 103.873347,12.9595151 C101.594999,14.4258547 98.7387759,16.9249305 96.957347,20.7943309 C90.1396513,14.6144279 83.7938165,12.3300414 82.1049093,11.8011914 C80.8527817,5.28907678 75.0994716,0.350454385 68.2031325,0.350454385 C64.4259325,0.350454385 60.8707846,1.81948235 58.1934368,4.48677628 C56.0619672,6.6102418 54.7084513,9.29174593 54.2389035,12.1937003 L45.4543499,12.1937003 L45.035689,13.2041611 C44.6432426,14.1531723 44.3768571,14.5852394 44.2107035,14.83411 L43.5584252,14.83411 C43.3109296,14.2545641 42.6355209,12.6737748 42.6355209,12.6737748 L32.1485672,12.6737748 L32.8444078,14.8110664 C32.9955267,15.2738583 33.999773,18.3567047 34.606947,20.195198 L31.9747035,20.195198 L32.6235122,22.3071417 C32.8174223,22.9366154 34.5290745,28.4924216 34.9485064,29.5658681 C35.2017846,30.2145448 35.5036368,30.68617 35.781973,31.0356642 C35.6744165,31.4108905 35.5448861,31.88482 35.3756484,32.5093009 C35.3756484,32.5093009 35.3093412,32.7485701 35.2445759,32.9809261 L33.197918,32.9809261 L33.197918,35.1654571 L33.0911325,35.1654571 L33.0911325,32.5131415 L20.6504281,32.5131415 L20.6504281,29.1061488 L31.5410078,29.1061488 L31.5410078,22.302533 L30.2156339,22.302533 L30.2156339,18.4980386 L20.6504281,18.4980386 L20.6504281,15.3264744 L19.445718,15.3264744 L19.445718,12.2897152 L9.38552087,12.2897152 L9.38552087,32.5131415 L-3.85507246e-05,32.5131415 L-3.85507246e-05,41.6883254 L2.91555275,41.6883254 L2.91555275,43.0160194 L17.7039962,43.0160194 C15.4264194,44.6325263 13.11646,47.0309785 11.4741991,50.5908269 L11.4537672,50.63653 C9.95877014,54.1595087 9.31073246,58.0120105 9.31073246,61.4766122 C9.31073246,65.4969481 10.1831354,68.9941948 11.6172223,70.8480505 C13.2822281,73.0014727 14.7961151,74.5519213 16.9399209,75.6726072 C14.1681238,76.7902206 9.46108029,78.6882432 9.46108029,78.6882432 L9.46108029,86.7822992 C9.46069478,86.7961254 9.46030928,86.826082 9.46030928,86.8706329 C9.46030928,87.7620353 9.63764261,94.5813975 14.8554832,96.9425959 C20.2849672,99.3998093 27.0976513,97.4092283 28.492802,96.7851315 C28.493573,96.7847474 28.595347,96.7394284 28.595347,96.7394284 C30.1119325,96.0623313 33.8698571,94.3751575 37.1208397,89.5855502 C37.7203035,90.6209749 38.8147586,91.2085861 39.1944832,91.3841013 C39.8698919,91.6963418 40.6944919,91.8061828 41.6235643,91.9087268 L42.1015933,91.9674879 C42.1015933,91.9674879 42.1786948,91.9801618 42.2484716,91.9909155 C43.0888774,93.115442 45.223431,94.900167 45.2465614,94.91937 C47.0491933,96.4110574 48.9659354,97.7364471 50.943973,98.8590533 C53.3699701,100.235907 57.1032223,102.051741 59.9748658,103.005745 L61.2578339,103.423218 C62.8472803,103.934401 63.5072687,104.157156 63.8920049,104.540447 C64.5627875,105.207943 65.3395846,105.856235 65.8442136,106.240295 C65.8719701,106.261802 68.6140832,108.314217 70.8654455,109.277822 C72.862373,110.133507 76.4930803,111.148576 79.0470658,111.708919 L80.3874745,111.99658 C82.4414571,112.432104 84.9969846,112.97478 86.0201209,113.500942 C86.7128774,113.857349 88.0027846,114.521388 88.9997064,113.592348 C89.2360223,113.371513 89.5478977,112.963258 89.5478977,112.345306 C89.5478977,112.07032 89.4862165,111.753854 89.3285441,111.393606 C89.2803557,111.277621 89.2005557,111.087895 87.3138832,107.318734 C89.8104281,107.262277 91.8948658,107.114414 95.4372919,106.862471 L95.8844803,106.830594 C101.162074,106.454984 105.928872,104.927195 109.408846,103.811118 C113.627066,102.458844 118.449376,99.2185331 121.296347,96.8546463 C124.181098,94.4600347 126.247031,91.2684994 127.437477,87.3695263 C127.815274,86.1317023 127.955599,84.5981523 127.955599,83.0043049 C127.955599,81.0187168 127.737788,78.9394181 127.491448,77.2222877 C127.391602,76.5225311 127.170706,75.7378973 126.957135,74.9793796 C126.758985,74.2765505 126.512646,73.4020468 126.512646,73.0364221 C126.512646,72.4077165 126.57317,70.0726341 127.344956,66.4282926 C127.776338,64.3908564 128.259764,62.5024354 128.727385,60.676232 L129.682672,56.8268026 C130.28946,54.2228785 131.693863,50.3235214 132.155315,49.0419145 L132.415918,48.3114332 C132.545448,47.9596346 132.720854,47.4799441 132.720854,46.9810507 C132.720854,46.550904 132.590553,46.1053948 132.186156,45.7148062 L132.186156,45.7148062 Z" id="Fill-1"></path>
                    </g>
                    <path d="M98.6493768,44.9695001 C98.6493768,44.9695001 97.4280899,43.112956 97.7172203,42.0249152 C97.7172203,42.0249152 100.095029,44.105366 100.866043,44.105366 C99.2592493,44.7774703 98.6493768,44.9695001 98.6493768,44.9695001 L98.6493768,44.9695001 Z M34.1243304,62.8086845 L31.8887739,61.1272716 L34.1243304,60.3595364 L34.1243304,62.8086845 Z M117.217719,33.7034958 C114.591643,31.7831978 112.591632,30.895252 111.386922,30.4151775 C111.218455,30.4151775 111.218455,30.3191626 111.218455,30.3191626 L111.218455,30.0549296 L112.374977,29.67087 L112.374977,30.5350041 L120.831849,27.5105348 C120.831849,27.5105348 121.386209,20.4776354 119.410484,17.0929181 C117.434759,13.7082009 115.651788,13.084104 113.940907,12.4361955 C112.230412,11.7879029 107.604325,12.5802178 104.881487,14.3322977 C102.159035,16.0847617 99.0749768,19.0374119 97.7257014,23.6699388 C97.2920058,24.6300878 97.0749652,25.9262889 96.9304,26.8146188 L89.4130087,29.6228626 L89.244542,30.4389892 L88.6419942,29.8390881 L81.9199043,32.2874681 L81.9199043,36.3681013 C81.9199043,36.3681013 81.5825855,36.5839428 81.052513,36.0558609 C80.9561362,36.1518758 80.4380145,36.4760221 79.9198928,35.959846 C79.401771,35.4436699 78.3057739,34.5918257 76.7637449,34.5918257 C75.2213304,34.5918257 75.2695188,34.735848 73.4626464,35.3357491 C71.6553884,35.9360343 66.499229,38.0003546 66.499229,38.0003546 L66.499229,46.9297403 L66.1619101,46.9297403 L65.463371,41.0006282 L62.933287,41.7929432 L62.5720667,39.3053892 L53.5847362,42.9777671 L52.958287,46.2096286 L50.3322116,47.1217701 L50.3322116,44.3204394 L43.0314754,46.888646 L43.0314754,49.4979469 L42.3568377,49.6419692 L42.3568377,47.0983425 L37.321342,48.8984299 C37.321342,48.8984299 35.3938058,42.3448368 29.129313,41.3846878 L25.9006899,41.3846878 C25.9006899,41.3846878 17.1785884,42.3928443 13.0825739,51.2742225 C10.0467043,58.4273326 10.7695304,66.9246512 13.0343855,69.8531057 C15.2992406,72.7815601 17.0822116,74.3177985 20.5035884,75.2779475 C21.2630377,75.4841875 22.1901826,75.3897089 20.5841594,76.0138057 L11.2190319,79.7906478 L11.2190319,86.7839891 C11.2190319,86.7839891 11.090658,93.3932707 15.6523652,95.4575911 C20.214458,97.5219114 26.3663826,96.0014195 27.9404087,95.2970542 C29.5148203,94.5926889 33.7554,92.8006668 37.0322116,86.7997355 C40.3090232,80.7988043 41.0168145,81.615699 41.0168145,81.615699 L44.5337971,71.3735976 L64.3392319,69.3572847 L64.2316754,69.262038 L69.7521391,67.0444778 L69.7521391,65.7724724 L71.0771275,65.0281649 L71.0771275,66.6124108 L76.9804,63.8283627 L76.9804,62.9400329 L78.3778638,62.1719137 L78.3778638,63.3962957 L84.4977913,61.0677423 L84.4977913,60.1075933 L86.3532377,59.5076922 L86.3532377,60.7558859 L97.3401942,56.6030495 C97.3401942,56.6030495 97.8941681,58.2594985 99.0267884,59.0756252 C100.159023,59.8917518 115.035748,59.2665028 115.035748,59.2665028 C115.035748,59.2665028 117.049252,57.4913793 118.277864,54.7069472 C119.506861,51.9225151 120.952513,50.5541108 121.169168,42.2730177 C121.169168,38.6244515 119.84418,35.6237938 117.217719,33.7034958 L117.217719,33.7034958 Z" id="Fill-4" fill="#2C2C69"></path>
                    <path d="M81.3640414,13.2508243 C81.3640414,13.2508243 89.424998,15.40079 97.617027,23.5620565 C98.5726994,24.9031926 98.3421661,25.0644976 97.3082357,24.9031926 C89.2526762,16.5491282 86.1158038,15.7898423 81.8150849,13.5726663 C81.2873255,13.300368 81.3640414,13.2508243 81.3640414,13.2508243" id="Fill-6" fill="#221F20"></path>
                    <path d="M81.72318,19.2014822 C81.9348235,19.2045546 83.7748496,18.7890022 89.4286988,22.1015162 C91.3577771,23.2318036 93.7490786,24.7522956 96.5274293,26.965247 C97.4831017,28.305615 96.724038,27.816323 95.6908786,27.654634 C90.2479017,22.6941202 86.6029307,21.3625855 83.6784728,19.9615361 C83.1426177,19.7049843 81.4733713,19.1976416 81.72318,19.2014822" id="Fill-8" fill="#221F20"></path>
                    <path d="M83.183173,23.8514838 C83.183173,23.8514838 88.1774194,24.9276188 92.8917875,28.3238578 L92.9465296,28.7536205 C92.9465296,28.7536205 93.2244803,29.916937 91.9511499,28.6483882 C90.6770484,27.3802234 86.0420948,24.8116328 83.3759267,24.123398 C80.7097586,23.4351632 83.183173,23.8514838 83.183173,23.8514838" id="Fill-10" fill="#221F20"></path>
                    <polygon id="Fill-12" fill="#2C2C69" points="11.1435496 34.147584 11.1435496 13.9245417 17.925393 13.9245417 17.925393 20.132481 28.695309 20.132481 28.695309 25.9744116 17.925393 25.9744116 17.925393 34.147584 31.5708075 34.147584 31.5708075 40.057109 1.75799014 40.057109 1.75799014 34.147584"></polygon>
                    <polygon id="Stroke-14" stroke="#2C2C69" stroke-width="0.25" points="11.1435496 34.147584 11.1435496 13.9245417 17.925393 13.9245417 17.925393 20.132481 28.695309 20.132481 28.695309 25.9744116 17.925393 25.9744116 17.925393 34.147584 31.5708075 34.147584 31.5708075 40.057109 1.75799014 40.057109 1.75799014 34.147584"></polygon>
                    <polygon id="Fill-16" fill="#2C2C69" points="12.3482597 36.7999764 12.3482597 16.9609937 19.1301032 16.9609937 19.1301032 23.9370522 30.0206829 23.9370522 30.0206829 27.4746252 19.1301032 27.4746252 19.1301032 36.7999764 32.7755177 36.7999764 32.7755177 41.3848799 4.67358145 41.3848799 4.67358145 36.7999764"></polygon>
                    <polygon id="Stroke-18" stroke="#2C2C69" stroke-width="0.25" points="12.3482597 36.7999764 12.3482597 16.9609937 19.1301032 16.9609937 19.1301032 23.9370522 30.0206829 23.9370522 30.0206829 27.4746252 19.1301032 27.4746252 19.1301032 36.7999764 32.7755177 36.7999764 32.7755177 41.3848799 4.67358145 41.3848799 4.67358145 36.7999764"></polygon>
                    <polygon id="Fill-20" fill="#FEFEFE" points="11.9145641 34.9157032 11.9145641 14.6235301 17.1913872 14.6235301 17.1913872 20.9006002 27.5518945 20.9006002 27.5518945 25.2062924 17.1913872 25.2062924 17.1913872 34.9157032 30.799793 34.9157032 30.799793 39.2889898 2.52900464 39.2889898 2.52900464 34.9157032"></polygon>
                    <polygon id="Fill-22" fill="#AE2C2C" points="12.6855786 35.6267895 12.6855786 15.3914573 16.4203728 15.3914573 16.4203728 21.6685274 26.78088 21.6685274 26.78088 24.4379812 16.4203728 24.4379812 16.4203728 35.6267895 30.0287786 35.6267895 30.0287786 38.5913456 3.30001913 38.5913456 3.30001913 35.6267895"></polygon>
                    <path d="M34.5224823,14.308486 L41.6705577,14.308486 L42.5938475,16.4688213 L45.0032678,16.4688213 C45.2064301,16.4688213 45.3922446,16.1842331 45.6131403,15.8620071 C45.8336504,15.5397811 46.182149,15.0067064 46.6702012,13.8284115 L53.7014678,13.8284115 L53.0750186,15.100801 L56.7373374,14.7405531 L64.3079287,26.1144781 L64.3079287,30.1509445 L65.1945954,30.1509445 L65.1945954,33.7034958 L64.2065403,33.7034958 L64.2065403,36.7521609 C64.2065403,37.8643975 63.0261171,39.4643898 63.0261171,39.4643898 L58.6205403,40.8808016 L47.3405983,40.8808016 L47.3405983,39.8726452 L44.3768186,39.8726452 L44.3768186,38.9843153 L44.0772794,38.9843153 C44.0772794,38.9843153 43.3062649,40.9714397 42.0826649,40.9714397 L37.8956707,40.9714397 L37.8956707,39.8688046 L34.956178,39.8688046 L34.956178,34.6156374 L36.2090765,34.6156374 C36.2090765,34.6156374 36.5702968,34.6878406 36.7630504,34.0637437 C36.9558041,33.4396469 37.6381519,30.7512297 37.7703809,30.6191132 C37.5656765,30.4151775 37.0039925,30.0230527 36.5945838,28.974954 C36.1847896,27.9268554 34.3096823,21.8299093 34.3096823,21.8299093 L37.1046099,21.8299093 C37.1046099,21.8299093 36.8983635,21.4857918 36.714862,20.9815216 C36.5382997,20.494534 34.5224823,14.308486 34.5224823,14.308486" id="Fill-24" fill="#2C2C69"></path>
                    <path d="M43.6037223,22.6295213 L40.2733252,22.6295213 C38.5358441,22.6295213 37.5358383,21.2695663 37.0327513,19.747154 L35.7324354,15.3646499 L40.4309977,15.3646499 L41.5027078,18.1932489 C41.7139658,18.7044322 42.0362499,18.9410129 42.6461223,18.9410129 L43.0886846,18.9410129 L43.0886846,17.3329554 L44.6681078,17.3329554 C45.1018035,17.3329554 45.42216,16.8939753 45.7382759,16.460756 C46.3450643,15.5290275 46.6372788,14.6683499 46.6372788,14.6683499 L52.1600557,14.6683499 L51.3551165,15.9092465 L54.1693194,15.9092465 L54.1693194,19.5969867 L49.492731,19.5969867 C48.8111542,20.6454694 48.293418,20.7092233 47.3030499,20.7092233 L43.6037223,20.7092233 L43.6037223,22.6295213 Z" id="Fill-26" fill="#FEFEFE"></path>
                    <path d="M56.6221093,27.9126068 L55.9894919,27.9126068 L54.6718281,25.4626906 L49.9185238,25.4626906 L49.9185238,25.632829 L50.9840658,27.9126068 L49.5064165,27.9126068 L49.5064165,24.4695125 L56.6221093,24.4695125 L56.6221093,27.9126068 Z M56.5353701,34.2841556 C56.5353701,34.8383536 56.5500194,35.0319196 56.2169412,35.0319196 L55.9293528,35.0319196 L54.5862455,32.6353877 L49.9185238,32.6353877 L49.9185238,32.8493089 L51.048831,35.079927 L49.4582281,35.079927 L49.4582281,31.7194055 L56.5353701,31.7194055 L56.5353701,34.2841556 Z M61.1518194,28.0147666 L61.1518194,21.0774981 L45.0457122,21.0774981 L45.0457122,27.926817 L43.6231904,27.926817 L43.6231904,26.2891869 L42.8317441,26.2891869 C42.1204832,26.2891869 41.9994339,26.1747371 41.6887151,25.6047927 L40.5784542,23.0699993 L35.329773,23.0699993 L37.1778948,28.3400651 C37.66826,29.3616637 38.4068919,30.5994877 40.5021238,30.5994877 L42.9747672,30.5994877 L42.9747672,30.9190253 L38.4940165,30.9190253 L37.373347,34.5422436 C37.1617035,35.2546742 36.9731904,35.6836687 36.3987846,35.6836687 L35.4192107,35.6836687 L35.4192107,39.068386 L39.1301035,39.068386 C40.6543991,39.068386 41.4682049,38.3624844 41.8741441,37.0378629 L43.4759267,31.4590131 L45.0457122,31.4590131 L45.0457122,39.1336761 L58.52266,39.1336761 C60.2851991,39.1336761 61.100547,37.3789078 61.1518194,35.5868857 L61.1518194,31.7194055 L62.5010948,31.7194055 L62.5010948,28.0147666 L61.1518194,28.0147666 Z" id="Fill-28" fill="#FEFEFE"></path>
                    <path d="M56.523111,35.8480846 C56.9548791,35.8480846 57.2274328,35.6545186 57.2274328,35.1003206 L57.2266617,30.9513247 L48.7898357,30.9513247 L48.7898357,35.8480846 L52.0828386,35.8480846 L50.9533023,33.6170824 L50.9533023,33.4035453 L54.0786096,33.4035453 L55.4648936,35.8480846 L56.523111,35.8480846 Z M57.2266617,23.7014317 L48.7898357,23.7014317 L48.7898357,28.6807644 L52.0184588,28.6807644 L50.7956299,26.1356014 L54.2042849,26.1356014 L55.5219487,28.6807644 L57.2266617,28.6807644 L57.2266617,23.7014317 Z M43.7377632,17.9570522 L44.9590501,17.9570522 C44.9590501,17.9570522 45.6475661,17.8545083 46.0912849,17.2288752 C46.5353893,16.6032422 47.0311516,15.4364691 47.0311516,15.4364691 L50.7370328,15.4364691 L49.9320936,16.6773657 L54.046998,16.6773657 L54.046998,18.8288675 L48.7250704,18.8288675 C48.0431081,19.8773502 47.3603748,19.9411041 46.4097139,19.9411041 L43.7377632,19.9411041 L43.7377632,17.9570522 Z M42.9108501,21.9282285 L40.1510038,21.9282285 C39.1213139,21.8533369 38.2246241,21.2695663 37.7215371,19.747154 L36.4212212,16.0271528 L39.7230907,16.0271528 L40.7944154,18.8488386 C41.0060588,19.3596379 41.3279574,19.5969867 41.9378299,19.5969867 L42.9108501,19.5969867 L42.9108501,21.9282285 Z M39.0075893,38.472748 L35.8996299,38.472748 L35.8996299,36.2720864 L36.67874,36.2720864 C37.3649429,36.2720864 37.6101255,36.0228318 37.8221545,35.3104012 L39.0075893,31.3833918 L42.7377574,31.3833918 L41.3665081,36.4422248 C40.9609545,37.7668464 40.5322704,38.472748 39.0075893,38.472748 L39.0075893,38.472748 Z M43.5087719,28.8309317 L45.694598,28.8309317 L45.694598,21.8456557 L60.2586762,21.8456557 L60.2586762,28.7829242 L61.8731806,28.7829242 L61.8731806,30.9513247 L60.2586762,30.9513247 L60.2586762,35.5869241 C60.2077893,37.3789462 59.3916704,38.3655953 57.6295168,38.3655953 L45.694598,38.3655953 L45.694598,30.9513247 L43.5087719,30.9513247 L43.5087719,29.831407 L43.5087719,28.8309317 Z M42.852253,29.831407 L40.3796096,29.831407 C39.1698878,29.8118199 38.4405081,29.3617021 37.9497574,28.3401035 L36.1926154,23.6580329 L39.9555516,23.6580329 L41.065427,26.3729503 C41.3765313,26.9428947 41.4975806,27.0573445 42.2084559,27.0573445 L42.852253,27.0573445 L42.852253,28.8309317 L42.852253,29.831407 Z" id="Fill-30" fill="#AE2C2C"></path>
                    <path d="M56.4971278,14.645652 L53.3197771,15.1725817 C53.3197771,15.1725817 53.1991133,22.5419173 60.78898,26.3583176 C60.78898,26.3583176 62.2943858,26.3364262 63.8140554,26.0979252 C65.3341104,25.8594242 56.4971278,14.645652 56.4971278,14.645652" id="Fill-32" fill="#404041"></path>
                    <path d="M75.2808142,23.9812191 C72.3490316,25.2589854 69.8174055,24.8718533 67.7553272,22.8179026 C66.3555504,21.4233822 65.8948693,20.5246827 65.1319504,19.0352996 C64.8046548,18.3966085 64.4337968,17.6734242 63.9152896,16.7662755 C62.7275417,14.6896652 61.4615359,13.799031 59.8524287,13.9242344 C59.9410954,13.0720062 60.1257533,12.1548718 60.4364722,11.1590053 C65.909133,13.4794934 76.4307823,17.9061643 79.288933,18.8678496 C78.4539243,20.9229525 77.0541475,22.6911629 75.2808142,23.9812191 M56.6176374,16.1529323 C57.051333,15.7765539 58.1604374,14.9258619 59.229449,14.6189982 C59.1134113,17.5263294 60.0841186,19.6766791 61.0613794,21.3204542 C62.6230693,23.9474219 65.1801388,25.4133773 66.9704345,26.165366 C61.6431099,25.5585519 57.3801707,21.4130126 56.6176374,16.1529323 M61.5590693,21.0270327 C60.557907,19.3425473 59.6519649,17.2932052 59.8046258,14.5045485 C60.8805765,14.3804972 62.0613852,14.6877449 63.4129736,17.0512477 C63.9249272,17.9472587 64.2923157,18.664298 64.6169128,19.2972282 C65.3786751,20.784307 65.881762,21.7659633 67.3466896,23.2250057 C69.0143939,24.8864476 70.9565794,25.5481823 73.1416345,25.217507 C71.8382345,25.7993572 70.4122432,26.1557646 68.9122345,26.229504 C67.9149272,25.9549014 63.6878403,24.6076203 61.5590693,21.0270327 M57.4241186,9.87816653 C57.8767041,10.0713485 58.749107,10.4431182 59.9006171,10.931642 C59.550191,12.0431105 59.3531968,13.0658612 59.2683852,14.0144884 C58.2016867,14.2618228 57.1376867,15.0011375 56.5401504,15.4750671 C56.5112374,15.1401671 56.4935041,14.8021947 56.4935041,14.4599976 C56.4935041,12.8358095 56.8250403,11.2876653 57.4241186,9.87816653 M59.8292983,6.27031065 C60.1006954,6.69392839 60.6053243,7.39368498 61.3173562,8.03506451 C60.8416403,8.71254565 60.4222084,9.49103446 60.0906722,10.3855093 C58.9584374,9.90543476 58.1022258,9.54057814 57.6627475,9.35354112 C58.2167214,8.21057975 58.9526548,7.17208259 59.8292983,6.27031065 M72.2171881,3.33571125 C70.3979794,3.1897686 68.0926461,3.47051617 65.9765968,4.36115038 C64.6165272,4.93378324 62.982362,5.9162077 61.6704809,7.56382338 C60.961533,6.91514672 60.478107,6.21308577 60.2537417,5.85475816 C62.3686345,3.88491648 65.2055823,2.67589686 68.3220229,2.67589686 C69.686333,2.67589686 70.9966722,2.91017321 72.2171881,3.33571125 M78.9770577,9.34585993 C78.301649,8.83621284 77.3567707,8.23208709 76.3139736,7.89718712 C74.3328519,7.26118442 71.6119417,7.56036685 69.7268113,8.0523472 L68.4291939,8.40491391 C67.0714374,8.78321261 66.5097533,8.93914081 64.8200751,8.93914081 C63.7580026,8.93914081 62.8466635,8.49670415 62.1149707,7.93559308 C63.3570751,6.36939803 64.9098983,5.43536508 66.201733,4.89153669 C69.5629707,3.47666112 73.0460287,3.77161889 74.3417186,4.4160709 L74.3779562,4.34271552 C76.359078,5.52369879 77.9666432,7.26502502 78.9770577,9.34585993 M80.1509272,14.4599976 C80.1509272,15.8149598 79.9169243,17.1157697 79.4928664,18.3282458 C76.7237678,17.40151 66.0926345,12.929136 60.6234432,10.6117204 C60.9314635,9.7748545 61.3212113,9.04437314 61.7637736,8.40798638 C62.5764229,9.0267064 63.6026432,9.51523021 64.8200751,9.51523021 C66.5887823,9.51523021 67.2144606,9.34125121 68.5849388,8.96026409 L69.8733041,8.61000173 C72.1431707,8.01739777 74.6015504,7.95287576 76.1362548,8.44562423 C77.6751997,8.93990893 79.0314142,10.1024573 79.4597128,10.4961184 C79.9065157,11.7354788 80.1509272,13.0697018 80.1509272,14.4599976 M68.3220229,1.98497364 C61.4172026,1.98497364 55.7999765,7.58149013 55.7999765,14.4599976 C55.7999765,21.3392731 61.4172026,26.9354055 68.3220229,26.9354055 C75.2268432,26.9354055 80.8444548,21.3392731 80.8444548,14.4599976 C80.8444548,7.58149013 75.2268432,1.98497364 68.3220229,1.98497364" id="Fill-34" fill="#221F20"></path>
                    <path d="M80.1510429,14.4599976 C80.1510429,15.8149598 79.91704,17.1157697 79.492982,18.3282458 C76.723498,17.40151 66.0927501,12.929136 60.6231733,10.6117204 C60.9315791,9.7748545 61.321327,9.04437314 61.7638893,8.40798638 C62.5765386,9.02709046 63.6027588,9.51523021 64.8201907,9.51523021 C66.588898,9.51523021 67.2145762,9.34125121 68.5850545,8.96026409 L69.8730342,8.61000173 C72.1432864,8.01739777 74.6016661,7.95287576 76.1363704,8.44562423 C77.6753154,8.93990893 79.0315299,10.1024573 79.4598284,10.4961184 C79.9062458,11.7354788 80.1510429,13.0697018 80.1510429,14.4599976" id="Fill-36" fill="#D88934"></path>
                    <path d="M78.9772119,9.3457063 C78.3018032,8.83644327 77.3569249,8.23231752 76.3141278,7.89703349 C74.3330061,7.2610308 71.6120959,7.56059728 69.72658,8.05257763 L68.4289626,8.40514434 C67.0715916,8.78305899 66.5099075,8.93898719 64.8202293,8.93898719 C63.7581568,8.93898719 62.8468177,8.49655053 62.1147394,7.93543945 C63.3572293,6.3692444 64.909667,5.43521146 66.2018872,4.89138306 C69.5631249,3.47689156 73.0461829,3.77146527 74.3418728,4.41591728 L74.3781104,4.34294596 C76.3592322,5.52392923 77.9667974,7.26487139 78.9772119,9.3457063" id="Fill-38" fill="#D88934"></path>
                    <path d="M72.2170725,3.33578806 C70.3978638,3.18984541 68.0925304,3.47059298 65.9768667,4.36122719 C64.6164116,4.93386006 62.9822464,5.91628451 61.6707507,7.5639002 C60.9618029,6.91522353 60.4779913,6.21316258 60.2536261,5.85483498 C62.3685188,3.88499329 65.2058522,2.67597367 68.3219072,2.67597367 C69.6866029,2.67597367 70.9965565,2.91025002 72.2170725,3.33578806" id="Fill-40" fill="#D88934"></path>
                    <path d="M59.8292983,6.27023384 C60.1006954,6.69423564 60.6053243,7.39360817 61.3173562,8.03537176 C60.8416403,8.71246884 60.4222084,9.4913417 60.0906722,10.3854325 C58.9584374,9.90535795 58.1026113,9.54088539 57.6627475,9.35346431 C58.2167214,8.210887 58.9526548,7.17200578 59.8292983,6.27023384" id="Fill-42" fill="#D88934"></path>
                    <path d="M57.4240029,9.87828175 C57.8765884,10.0714637 58.7493768,10.4432334 59.9005014,10.9317572 C59.5504609,12.0432257 59.3530812,13.0659764 59.2682696,14.0146036 C58.2019565,14.261938 57.1379565,15.0012528 56.5400348,15.4747982 C56.5115072,15.1402823 56.4933884,14.8019258 56.4933884,14.4601128 C56.4933884,12.8359247 56.8249246,11.2877805 57.4240029,9.87828175" id="Fill-44" fill="#D88934"></path>
                    <path d="M61.5591849,21.0269174 C60.5576371,19.342432 59.6520806,17.29309 59.8047414,14.5048173 C60.8806922,14.380382 62.0615009,14.6876297 63.4130893,17.0511325 C63.9250429,17.9471435 64.2924313,18.6645668 64.6170284,19.297113 C65.3787907,20.7841918 65.8818777,21.7662322 67.3468052,23.2252746 C69.0145096,24.8867164 70.9566951,25.548067 73.1417501,25.2173917 C71.8383501,25.7996261 70.4123588,26.1560334 68.9123501,26.2293888 C67.9146574,25.9547862 63.6875704,24.6075051 61.5591849,21.0269174" id="Fill-46" fill="#D88934"></path>
                    <path d="M56.6175988,16.1530091 C57.0512945,15.7766307 58.1603988,14.9259387 59.2294104,14.619075 C59.1137583,17.5264062 60.08408,19.6767559 61.0613409,21.320531 C62.6230307,23.9474987 65.1801003,25.4130701 66.9703959,26.1650588 C61.6430713,25.5586287 57.3801322,21.4130894 56.6175988,16.1530091" id="Fill-48" fill="#D88934"></path>
                    <path d="M75.2808142,23.9812191 C72.3490316,25.2589854 69.8174055,24.8718533 67.7553272,22.8179026 C66.3555504,21.4233822 65.8948693,20.5246827 65.1319504,19.0352996 C64.8046548,18.3966085 64.4337968,17.6734242 63.9152896,16.7662755 C62.7275417,14.6896652 61.4615359,13.799031 59.8524287,13.9242344 C59.9410954,13.0720062 60.1257533,12.1548718 60.4364722,11.1590053 C65.909133,13.4794934 76.4307823,17.9061643 79.288933,18.8678496 C78.4539243,20.9229525 77.0541475,22.6911629 75.2808142,23.9812191" id="Fill-50" fill="#D88934"></path>
                    <path d="M24.936729,59.226215 L33.5875116,56.1537382 C33.5875116,56.1537382 33.2598304,47.6667891 32.7189638,45.8252233 C32.1784826,44.553602 30.5990594,42.0529899 26.9178507,42.3686869 C23.3337899,42.6763187 18.0481,45.3086632 15.1992014,50.2296188 C12.3506884,55.1513426 11.7377319,59.3694692 12.3144507,63.8890826 C12.7639522,67.4093729 15.1440739,72.4973944 18.9455609,73.5977252 C21.5153522,74.3416486 22.8407261,75.2299785 24.0693377,77.18561 C24.6129029,78.0505122 24.7470594,79.7703311 24.6209986,81.6741145 C24.5631725,82.5451617 24.2825232,84.4900395 23.1313986,84.7992075 C22.1418014,84.9274834 21.6198246,83.5629196 21.6198246,82.6592274 C21.6198246,81.7551511 21.5839725,76.7900286 21.5839725,76.7900286 L12.1344188,80.6329289 L12.1344188,86.9430282 C12.1344188,88.1651058 12.5041203,92.8967201 15.708842,94.5047776 C18.2431667,95.7771671 21.1699377,95.5229196 24.1406565,94.5282053 C27.0111435,93.56652 29.6140884,90.8220301 30.9120913,89.2481539 C32.2100942,87.6750458 32.9645319,86.8523901 33.9336971,83.1416062 L32.5335348,66.1565704 C32.5335348,66.1565704 31.3161029,63.924032 27.6109928,62.003734 C25.2312565,60.8035477 23.8353348,60.8842003 22.8889145,59.6033615 C21.9421087,58.3229068 22.0215232,57.9519052 22.0215232,56.2190283 C22.0215232,55.147502 22.3037145,54.1696863 22.993387,53.4826036 C23.4027957,53.0743483 24.4895406,52.3964831 25.0570072,53.626626 C25.2960217,54.2253749 25.3222362,55.9421213 25.3222362,56.4191233 C25.3222362,57.3304968 25.0554652,58.6612633 24.936729,59.226215" id="Fill-52" fill="#FEFEFE"></path>
                    <path d="M24.936729,59.226215 L33.5875116,56.1537382 C33.5875116,56.1537382 33.2598304,47.6667891 32.7189638,45.8252233 C32.1784826,44.553602 30.5990594,42.0529899 26.9178507,42.3686869 C23.3337899,42.6763187 18.0481,45.3086632 15.1992014,50.2296188 C12.3506884,55.1513426 11.7377319,59.3694692 12.3144507,63.8890826 C12.7639522,67.4093729 15.1440739,72.4973944 18.9455609,73.5977252 C21.5153522,74.3416486 22.8407261,75.2299785 24.0693377,77.18561 C24.6129029,78.0505122 24.7470594,79.7703311 24.6209986,81.6741145 C24.5631725,82.5451617 24.2825232,84.4900395 23.1313986,84.7992075 C22.1418014,84.9274834 21.6198246,83.5629196 21.6198246,82.6592274 C21.6198246,81.7551511 21.5839725,76.7900286 21.5839725,76.7900286 L12.1344188,80.6329289 L12.1344188,86.9430282 C12.1344188,88.1651058 12.5041203,92.8967201 15.708842,94.5047776 C18.2431667,95.7771671 21.1699377,95.5229196 24.1406565,94.5282053 C27.0111435,93.56652 29.6140884,90.8220301 30.9120913,89.2481539 C32.2100942,87.6750458 32.9645319,86.8523901 33.9336971,83.1416062 L32.5335348,66.1565704 C32.5335348,66.1565704 31.3161029,63.924032 27.6109928,62.003734 C25.2312565,60.8035477 23.8353348,60.8842003 22.8889145,59.6033615 C21.9421087,58.3229068 22.0215232,57.9519052 22.0215232,56.2190283 C22.0215232,55.147502 22.3037145,54.1696863 22.993387,53.4826036 C23.4027957,53.0743483 24.4895406,52.3964831 25.0570072,53.626626 C25.2960217,54.2253749 25.3222362,55.9421213 25.3222362,56.4191233 C25.3222362,57.3304968 25.0554652,58.6612633 24.936729,59.226215 L24.936729,59.226215 Z" id="Stroke-54" stroke="#FEFEFE" stroke-width="0.25"></path>
                    <polygon id="Fill-56" fill="#FEFEFE" points="36.293387 50.2255478 36.293387 67.0204741 41.6261087 66.6195159 41.6261087 64.1880346 43.9387667 63.0961531 43.9387667 66.9117852 48.7899899 67.4878746 48.7899899 45.8011812 43.9387667 47.4695361 43.9387667 56.85096 41.6261087 58.0365519 41.6261087 48.2860468"></polygon>
                    <path d="M57.1811719,58.3470641 L57.9051545,52.2704731 L58.1144849,52.1917409 L59.2255168,57.3366033 L57.1811719,58.3470641 Z M61.495769,41.3094122 L54.3954965,44.0412281 L50.6649429,69.0865227 L56.5643603,66.4768377 L56.62874,64.9405993 L59.7447951,63.7561595 L60.7081777,68.2531134 L65.6573197,66.3005544 L61.495769,41.3094122 Z" id="Fill-58" fill="#FEFEFE"></path>
                    <path d="M75.2612304,44.3795462 C74.9628478,47.7465967 72.3541203,48.3457297 72.3541203,48.3457297 L72.3541203,42.4116248 C72.3541203,42.4116248 72.7727812,42.3148418 73.2774101,42.1047612 C73.7824246,41.8950646 74.1922188,41.9949201 74.5114188,42.1827253 C75.2423406,42.6681766 75.3333203,43.3306794 75.2612304,44.3795462 M74.9138884,53.6407594 C74.9146594,53.6495928 74.9146594,53.6495928 74.9138884,53.6407594 M79.0885464,37.1442474 C77.895787,35.5841973 74.9123464,36.0439166 74.9123464,36.0439166 L67.6197058,38.720428 L67.6197058,65.546607 L72.5950623,63.355547 L72.5950623,53.6223245 C72.7720101,52.9867059 73.2801087,52.7451324 73.9131116,52.7624151 C74.7589145,52.7624151 74.8965406,53.5063385 74.9123464,53.6300057 L74.9123464,62.3354847 L79.9370478,60.0956491 C79.9370478,50.9227696 79.8934855,51.3321771 79.8934855,50.3885427 C79.8075174,49.4341546 79.6768304,49.0727545 79.0719696,48.470165 C78.5900855,47.9900905 78.1610159,47.9340178 78.0646391,47.8821697 C79.9069783,45.5102177 80.0442188,44.6664387 80.3857783,42.9205038 C80.6945696,40.4851819 80.1224768,38.1742952 79.0885464,37.1442474" id="Fill-60" fill="#FEFEFE"></path>
                    <path d="M82.8925006,32.9008881 L87.22406,31.4353167 C87.22406,31.4353167 87.6712484,31.263258 87.6712484,31.5670491 C87.6712484,31.8708402 87.624602,40.8340232 87.624602,41.193503 C87.624602,41.5525987 87.8401006,41.0898069 87.8401006,41.0898069 L90.6832165,30.5281679 L95.202518,28.7768561 L95.4712165,29.0253427 L92.6092107,42.1851449 L96.5930426,54.3947836 L90.867489,56.5939089 L87.8015499,45.4277601 C87.8015499,45.4277601 87.7059441,44.7775472 87.7059441,45.6896887 L87.7437238,57.7891023 L82.8685991,59.5000879 L82.8925006,32.9008881 Z" id="Fill-62" fill="#FEFEFE"></path>
                    <path d="M109.308806,29.3453027 L116.848172,26.6184796 C116.848172,26.6184796 116.799983,23.9780698 116.799983,22.0900328 C116.799983,19.7054068 116.426427,17.6130501 115.587563,16.1528555 C114.833896,14.841676 112.943369,12.5307894 109.156146,13.7325119 C104.819189,15.1089815 99.9664238,19.545638 98.488389,25.2105171 C97.4282441,29.114867 97.7173745,33.947873 98.2640238,36.3482455 C98.809902,38.748618 100.904363,39.992587 102.688876,41.0022797 C104.04509,41.7696308 105.284882,42.2954084 107.758682,44.3754752 C108.610267,45.2238628 109.013508,45.7653869 109.013508,47.241712 C109.013508,47.9372439 109.158073,48.7779504 108.90518,50.2980583 C108.377421,53.4703905 105.971085,52.3470162 105.736696,49.7799619 C105.672702,49.0790531 105.877021,46.7493475 106.230917,45.2131091 C105.170772,45.6613067 97.6209977,48.4138619 97.6209977,48.4138619 C97.6209977,48.4138619 97.5728093,52.8943011 97.6691861,54.2070169 C97.821847,56.2820909 100.03196,60.0662301 102.61216,60.1714624 L110.821537,59.2197628 C110.821537,59.2197628 116.061351,56.3830986 117.699757,48.6381527 C118.30963,45.3413851 118.534766,40.9246997 117.31425,38.2044055 C116.092963,35.4841114 113.78069,33.3195515 111.188925,32.1723654 C110.111432,31.6949794 109.629548,31.8117335 107.929461,30.5374237 C106.343099,29.3483752 105.757899,26.7770962 106.664612,24.8863708 C106.904783,24.3847889 108.130311,22.2655481 108.897085,24.1501285 C109.252908,25.0254003 109.308806,27.4326859 109.308806,29.3453027" id="Fill-64" fill="#FEFEFE"></path>
                    <path d="M26.1414391,57.6914744 L32.3735493,55.4512547 C32.3735493,55.4512547 32.2131783,47.7059248 31.7312942,45.9453956 C31.2494101,44.7294629 29.5786217,42.8091649 26.4305696,43.4490082 C23.2825174,44.0892355 18.527671,46.1374254 15.9898768,50.8425395 C13.4520826,55.5472696 12.9054333,59.5798954 13.4197,63.9001819 C13.9339667,68.2208524 16.5288159,71.910513 20.0373174,72.8295676 C23.5265435,73.7432454 25.1248565,76.7300769 25.4806797,77.6280082 C25.8365029,78.5267077 25.7887,80.4289549 25.5311812,82.4948115 C25.3862304,83.6596642 24.856158,85.5672883 23.0573812,85.919855 C21.9972362,86.1433777 20.6803435,84.5433854 20.6803435,83.6792513 C20.6803435,82.8151172 20.6479609,78.238663 20.6479609,78.238663 L13.259329,81.3748937 C13.259329,81.3748937 13.1305696,85.1359893 13.1305696,86.3039146 C13.1305696,87.4718398 13.3638014,92.3363387 16.2790072,93.6325399 C19.1225087,94.8972481 20.8730971,94.3691662 23.5716478,93.601047 C26.2701986,92.8329278 29.0327435,90.1760035 30.1892652,88.6720261 C31.345787,87.1680487 32.0566623,86.1065079 32.9201986,82.5593335 L33.0003841,81.9256351 L31.1067725,66.1722785 C31.1067725,66.1722785 30.2617406,64.1164074 26.960642,62.7963946 C24.8403522,62.0282754 22.9128159,61.2601562 22.0693261,60.0357742 C21.2262217,58.8117762 21.1537464,58.1154762 21.1537464,56.4594112 C21.1537464,54.8029621 21.2501232,53.5789642 22.6718739,52.4747928 C24.0936246,51.3706215 25.4748971,52.0104648 25.9810681,53.1864553 C26.1938681,53.7590881 26.2378159,54.4031561 26.2378159,54.8594189 C26.2378159,55.7308501 26.2466826,57.0205223 26.1414391,57.6914744" id="Fill-66" fill="#AE2C2C"></path>
                    <polygon id="Fill-68" fill="#AE2C2C" points="37.2891522 50.9385544 37.2891522 66.3201414 40.5979609 66.2698296 40.5979609 63.4343176 44.9029203 61.3400406 44.9029203 66.5248452 47.8262217 67.1009346 47.8262217 47.1617123 44.9029203 48.0899844 44.9029203 57.6273364 40.5979609 59.7995775 40.5979609 49.7541146"></polygon>
                    <path d="M55.8578797,60.0918469 L57.4962855,47.1939733 L57.9700739,47.0257552 L60.4839667,57.9476421 L55.8578797,60.0918469 Z M60.6767203,42.5848741 L55.2472362,44.7294629 L52.0668014,67.0686736 L52.227558,68.8292028 L55.3316623,67.3567183 L55.6651261,64.2204876 L60.419587,62.1400367 L61.5441116,66.652353 L64.4354159,65.4041593 L60.6767203,42.5848741 Z" id="Fill-70" fill="#AE2C2C"></path>
                    <path d="M76.2733797,44.3454033 C75.8080725,49.2260327 71.4549246,49.5620848 71.4549246,49.5620848 L71.4549246,41.6247251 C71.4549246,41.6247251 72.2579362,41.353195 73.045142,41.0486357 C73.8323478,40.7448445 74.2980406,40.7290981 74.7961159,41.0006282 C75.9360609,41.7049935 76.3863333,42.8249113 76.2733797,44.3454033 M79.4742464,42.9205422 C79.9229768,40.6242498 79.026287,38.5599295 78.3177246,37.7603174 C77.2332928,36.5359354 74.9082986,37.0482709 74.9082986,37.0482709 L68.5832812,39.4044765 L68.5832812,64.0322984 L71.6476783,62.5402268 L71.6476783,52.7866492 C72.403658,51.8971672 73.3967246,51.6540575 74.029342,51.6713402 C75.2641217,51.7055215 75.8840174,52.9548673 75.8840174,52.9548673 L75.8840174,60.9794086 L78.9441739,59.4589167 L78.9441739,50.2099934 C78.5621362,48.4901745 77.0127826,48.5381819 76.2417681,49.0662639 C75.4707536,49.5943458 75.4865594,49.3063011 75.3901826,49.2102862 C78.1099362,46.7765006 79.1323014,44.6664771 79.4742464,42.9205422" id="Fill-72" fill="#AE2C2C"></path>
                    <path d="M83.750871,33.7410185 L86.7624536,32.7086663 L86.7624536,43.0544638 C86.7624536,43.0544638 87.3530507,42.3462579 88.1360159,43.1262829 C88.2323928,43.2222978 88.5458101,43.1504787 88.5458101,42.8862457 C88.5458101,42.6223967 91.5331058,30.9911517 91.5331058,30.9911517 L94.3577174,29.9910605 L91.5092043,42.3823595 L95.2679,53.6402985 L91.5812942,55.1016453 L88.376958,44.3026575 C88.376958,44.3026575 87.9432623,44.0146128 87.6541319,44.3026575 C87.3650014,44.5907022 87.0396333,44.6986229 86.834929,44.4946873 L86.834929,56.9827692 L83.7269696,58.1529988 L83.750871,33.7410185 Z" id="Fill-74" fill="#AE2C2C"></path>
                    <path d="M110.374965,27.8788479 L115.804449,25.7822666 L115.804449,21.3978422 C115.804449,19.5094211 115.402365,17.8295445 114.655252,16.4611401 C113.93127,15.1338301 112.655626,13.3963445 108.929313,14.7728141 C105.203,16.1492837 100.768896,20.0536336 99.2916319,25.7185127 C98.231487,29.6228626 98.6169942,32.8236153 99.1628725,35.2239878 C99.7095217,37.6243603 100.583081,38.5837412 101.900745,39.4156143 C103.217638,40.2478714 106.102003,41.5932322 108.576188,43.673299 C109.427003,44.5216867 109.860699,44.8892317 109.989458,46.6816378 C110.118217,48.474044 109.989458,50.5867559 109.571568,51.6744126 C109.154449,52.7628375 107.644032,54.2990759 105.716496,52.3787779 C105.058435,51.7224201 104.878403,50.9704314 104.78511,50.2664501 C104.692588,49.5682298 104.623968,48.1859993 104.977864,46.6497609 C103.917719,47.0979584 98.5846116,49.0820103 98.5846116,49.0820103 L98.5846116,52.9226063 C98.5846116,55.0034413 99.7638783,58.5690506 102.343307,58.674667 L109.889997,58.3835498 C109.889997,58.3835498 115.129812,55.5472696 116.768217,47.8019397 C117.37809,44.5051721 117.603226,41.1446506 116.38271,38.4243564 C115.161423,35.7040623 112.919313,33.9308591 111.249296,33.130863 C109.578507,32.3308668 107.652513,32.0712425 106.399229,30.2469594 C105.14633,28.4226763 104.849104,26.422878 105.877638,24.2782892 C106.117809,23.7767074 106.404626,23.3646114 106.711104,23.0439216 C107.712652,21.9935186 109.089684,21.7657713 109.856843,23.6503518 C110.213052,24.5252395 110.374965,25.9662311 110.374965,27.8788479" id="Fill-76" fill="#AE2C2C"></path>
                    <path d="M95.2024023,28.7767409 C95.2024023,28.7767409 95.6630835,28.6523056 95.5609241,29.1150974 C95.4591501,29.5775052 92.5211994,42.3824363 92.5211994,42.3824363" id="Fill-78" fill="#FEFEFE"></path>
                    <path d="M22.5032145,76.7901822 L22.5032145,78.2784132 C22.5032145,78.2784132 22.8285826,78.8783142 23.1296638,78.2784132 C23.116942,77.388163 23.1778522,77.0060237 22.5032145,76.7901822" id="Fill-80" fill="#FEFEFE"></path>
                    <path d="M28.2135406,60.0595859 C28.2135406,60.2719708 28.0412188,60.4436455 27.8280333,60.4436455 C27.6148478,60.4436455 27.4425261,60.2719708 27.4425261,60.0595859 C27.4425261,59.847585 27.6148478,59.6755263 27.8280333,59.6755263 C28.0412188,59.6755263 28.2135406,59.847585 28.2135406,60.0595859" id="Fill-82" fill="#FEFEFE"></path>
                    <path d="M34.1241377,62.8087613 L31.8885812,61.1273484 L34.1241377,60.3596132 L34.1241377,62.8087613 Z M28.2497783,60.8396877 C28.2497783,60.8396877 33.104471,63.6602214 35.0925319,65.9165716 C35.5138913,65.9165716 35.6102681,65.906586 35.6102681,65.906586 L35.6102681,58.2499739 L28.2497783,60.8396877 Z" id="Fill-84" fill="#FEFEFE"></path>
                    <path d="M98.6493768,44.9695001 C98.6493768,44.9695001 97.4280899,43.112956 97.7172203,42.0249152 C97.7172203,42.0249152 100.095029,44.105366 100.866043,44.105366 C99.2592493,44.7774703 98.6493768,44.9695001 98.6493768,44.9695001 M101.797429,42.7288964 C99.4836145,41.9000958 97.6856087,39.4966508 97.2037246,37.6086139 L95.9508261,43.145217 L97.4280899,46.9220592 L104.752728,44.5531795 C104.752728,44.5531795 104.255038,43.6095451 101.797429,42.7288964" id="Fill-86" fill="#FEFEFE"></path>
                    <path d="M26.1414391,70.2851727 C26.1414391,70.2851727 22.4151261,70.7975082 23.9247725,72.8138211 C25.4344188,74.830134 28.0527841,76.3821189 28.0527841,76.3821189 C28.0539406,76.3844232 28.3581058,77.4540292 29.1615029,77.7263275 C29.4506333,78.3669389 29.2968159,79.3002037 29.4506333,80.0149386 C29.5951986,80.6870429 29.6753841,81.3268862 31.0728478,81.4394157 C31.4583551,81.4828144 32.6815696,82.0635125 32.865071,82.0635125 C33.048187,82.0635125 34.0119551,83.5352289 34.0119551,83.5352289 L36.6788942,86.6722277 L36.9522188,86.944526 C36.9522188,86.944526 39.1523087,83.0228934 41.0798449,81.4229011 C43.0073812,79.8229088 40.7907145,76.0145738 40.7907145,76.0145738 L39.0559319,72.3975005 L26.1414391,70.2851727 Z" id="Fill-88" fill="#404041"></path>
                    <path d="M95.5329362,61.7079697 C95.5329362,61.7079697 90.681713,65.8684873 89.3324377,69.8373592 C89.3324377,69.8373592 87.6940319,73.5181864 88.497429,77.6468271 C89.5733797,78.7187375 92.7703913,80.6547819 95.0186696,81.9674976 C97.2677188,83.2794452 100.126641,85.424034 102.79358,86.0961383 C105.459748,86.7682426 111.194168,88.3524885 114.615545,84.9439595 C118.036922,81.5354306 118.149104,80.2707223 118.727365,77.742842 C119.305626,75.2141936 119.36962,72.5572693 119.209249,72.3975005 C119.048878,72.2377317 118.309475,71.1170458 117.185336,70.7652472 C116.061197,70.4134486 108.511423,66.9569122 103.757348,64.7485695 C99.0025014,62.5402268 94.2476551,59.2115823 92.8020029,58.47534 C91.9669942,57.9315116 93.7981536,57.9315116 94.6331623,57.9315116 C95.468942,57.9315116 110.053452,58.3155712 111.756623,58.5713549 C113.459023,58.8279067 117.250101,59.8195486 117.250101,59.8195486 C117.250101,59.8195486 120.816043,55.5311391 124.189232,52.746707 C127.56242,49.9622749 130.340771,47.513895 130.96722,46.8897981 C131.449104,46.6977683 131.063597,47.5296414 130.903226,48.0097159 C130.742855,48.4897904 128.943307,53.2905354 128.204675,56.4590271 C127.466043,59.6275188 126.598652,62.6043648 125.859249,66.0927781 C125.120617,69.5808074 124.991858,71.981948 124.991858,73.0381119 C124.991858,74.0942758 125.795255,76.1105887 125.988009,77.4547973 C126.180762,78.7990059 126.887012,83.9515495 125.988009,86.8957504 C125.088235,89.8407194 123.449829,93.040704 120.365771,95.6016134 C117.281713,98.1617547 112.71962,101.073695 109.02569,102.258134 C105.330988,103.442574 100.833661,104.851305 95.8860609,105.203103 C90.9392319,105.554902 88.818942,105.714671 84.8674928,105.714671 C84.7221565,105.858693 84.9630986,106.050723 85.1400464,106.402522 C85.3169942,106.755088 87.8062145,111.715602 87.9191681,111.9879 C88.0313507,112.25943 88.3528638,112.804027 86.8914058,112.051654 C85.4291768,111.299281 82.0725652,110.675185 79.5185797,110.11561 C76.9645942,109.555267 73.4626464,108.563625 71.631487,107.778991 C69.8003275,106.995126 67.4417942,105.31256 66.9583681,104.945015 C66.5431768,104.628934 65.8122551,104.027113 65.17,103.38727 C64.3411594,102.561926 63.2147072,102.321888 60.6125333,101.457754 C58.0103594,100.59362 54.4124203,98.8818665 51.8742406,97.441643 C49.3360609,96.0014195 47.4570986,94.528935 46.4131449,93.6648009 C45.3688058,92.8006668 43.9069623,91.4241972 43.5858348,90.8961152 C43.2647072,90.3680333 43.0237652,90.4640482 42.5418812,90.3680333 C42.0599971,90.2720184 40.6945304,90.2240109 40.004087,89.9044733 C39.3128725,89.5841676 37.8514145,88.5917576 38.7669942,87.3758249 C39.1922087,86.9518231 39.3776377,86.7359816 40.2932174,86.7997355 C40.324829,86.1433777 39.6100986,83.4795403 40.0761768,82.9034509 C40.2847362,82.6949065 40.4693942,82.8554434 40.7585246,83.2636988 C41.0476551,83.6715701 43.0472812,85.9033404 43.971342,86.1994504 C44.2203797,86.1994504 44.1159072,85.9279202 44.0758145,85.7036294 C44.0357217,85.4793386 43.9632464,82.6949065 44.1964783,82.182571 C44.4289391,81.6710036 44.5014145,82.2232813 44.5735043,82.4310576 C44.6459797,82.6388338 46.0114464,84.9992641 47.4008145,85.9594131 C47.6016638,86.0953702 48.0754522,86.6557132 47.9027449,85.7961878 C47.6575623,84.6236538 49.0912638,82.0193457 49.2562609,81.8549682 C49.420487,81.6905907 50.621342,85.1517358 52.8703913,86.6557132 C53.038858,86.8235472 53.1915188,86.912265 53.1915188,86.4479369 C53.1915188,85.9836089 53.6171188,85.5596071 53.6171188,85.5596071 C53.6171188,85.5596071 53.4806493,84.2230797 53.5770261,83.8712811 C53.6734029,83.5194825 52.6776377,84.6716613 52.4686928,85.1352212 C52.2597478,85.5995493 51.9548116,84.8794375 51.762058,84.3836166 C51.5693043,83.8877956 51.1672203,83.7752662 50.781713,80.6390355 C50.3962058,80.2549759 49.4166319,79.2303049 49.4166319,79.2303049 C49.4166319,79.2303049 49.3044493,79.0225286 49.1756899,79.3105733 C49.0469304,79.598618 48.0673565,82.1272664 47.7458435,83.7115123 C47.5696667,84.1915868 47.5530899,84.367102 46.5411333,83.3589456 C45.5291768,82.3507891 44.8869217,80.65555 44.6783623,79.231073 C44.4694174,77.8065959 44.4694174,77.2305065 44.4694174,77.1502381 C44.4694174,77.0707377 44.048058,77.2351152 43.7785884,77.8065959 C43.5087333,78.3780766 43.0187536,79.5828716 42.8522145,81.2308713 C42.6860609,82.8796392 42.8522145,83.7633603 42.8522145,83.7917807 C42.8522145,83.819433 42.8472029,84.2718552 42.2207536,83.439214 C41.5943043,82.6073409 39.4898203,79.1185435 39.1525014,78.7824914 C38.8151826,78.4464392 39.0318377,79.334385 39.0318377,80.0786925 C39.0318377,80.822616 39.104313,83.6792513 39.104313,83.6792513 C39.104313,83.6792513 38.9759391,84.5598999 38.4778638,84.0633109 C37.9797884,83.5674899 35.5780783,81.7024965 33.8035884,79.9346702 C33.6189304,79.7507056 33.6189304,79.9991922 33.6189304,80.3509908 C33.6189304,80.7027894 33.4018899,81.486655 31.9882348,80.4147447 C31.2253159,79.9907429 31.0410435,80.0306851 31.0410435,80.0306851 C31.0410435,80.0306851 30.590771,79.9984241 30.590771,78.8942527 L30.590771,76.7346856 C30.590771,76.7346856 30.0606986,76.750432 29.9161333,76.4301263 C29.7715681,76.1105887 29.6350986,74.9418954 29.6350986,74.9418954 C29.6350986,74.9418954 27.8039391,74.1975879 26.6717043,73.0696048 C25.5390841,71.9412377 25.3999159,71.2430174 25.4908957,70.2129695 C25.1778638,69.4928578 24.0695304,68.2446641 28.6956174,66.6366065 C28.6956174,66.6366065 32.3336493,65.6764575 39.0800261,65.9403065 C45.8264029,66.2045395 49.3684435,66.9964704 50.6452435,67.2365076 C51.922429,67.4765449 52.3318377,67.6685747 52.5488783,67.8848002 C53.199229,67.6205672 53.7535884,67.0686736 54.1629971,66.6604182 C54.5727913,66.2525469 55.3314696,65.4963336 55.3314696,65.4963336 C55.3314696,65.4963336 55.9822058,65.4483261 56.2593855,65.724465 C56.5361797,66.0006038 57.696942,66.7406867 57.696942,66.7406867 L59.3592493,66.5405916 C59.3592493,66.5405916 63.599829,68.6206584 64.3392319,69.3572847 C65.3831855,69.7893518 70.4749652,71.0375455 71.3423565,71.4058586 C72.0813739,70.6692323 76.1611971,65.8684873 83.2930812,63.5326368 C90.2156348,61.4037945 95.0826638,61.7079697 95.5329362,61.7079697" id="Fill-90" fill="#221F20"></path>
                    <path d="M80.6427188,97.4573894 C80.6427188,97.4573894 94.8101101,102.114112 107.580038,101.490015 C108.158299,101.490015 107.780501,101.86601 107.105864,102.138308 C106.431226,102.410606 102.616632,103.906134 97.3883826,104.202244 C92.5691565,104.47531 85.1558522,104.37123 84.4496029,104.210693 C83.7425826,104.050157 81.766858,100.066306 81.0922203,98.7378441 C80.4175826,97.409382 80.5297652,97.5053969 80.6427188,97.4573894" id="Fill-92" fill="#FEFEFE"></path>
                    <path d="M80.8512783,85.4555269 C79.6947565,88.73578 77.8582,89.8468644 77.8582,89.8468644 C77.8582,89.8468644 76.8585797,90.6184401 77.0443942,90.2240109 C77.301913,89.6801825 78.3859594,88.503808 78.8597478,86.4794298 C79.3612928,84.3379135 79.3258261,81.5031696 76.9962058,79.1822974 L79.6631449,79.1508045 C79.6631449,79.1508045 81.8054087,82.7513633 80.8512783,85.4555269 M73.5540116,90.3538231 C73.2883971,90.617672 72.0890841,91.2083557 72.779913,90.5205049 C73.470742,89.8326542 74.9082986,87.7921455 75.197429,85.9993553 C75.4865594,84.2073332 75.9684435,82.7356168 73.3180812,78.0946406 L75.9044493,78.0466332 C75.9044493,78.0466332 77.4969797,81.1152694 77.4780899,82.9914005 C77.4379971,86.9917653 75.7853275,88.5114892 73.5540116,90.3538231 M68.8041768,90.9921301 C67.8924522,91.4602988 69.2860609,90.3200258 69.9930812,89.2638619 C70.7001014,88.207698 71.9206174,86.7997355 71.9206174,83.1834303 C71.791858,80.3352443 70.0042609,78.3573374 69.029313,76.5584022 L71.8882348,76.9424618 C71.8882348,76.9424618 74.4904087,80.2384613 73.6230174,84.399363 C72.9298754,87.6427463 70.7001014,89.9044733 68.8041768,90.9921301 M65.6306812,90.4444611 C65.3631391,90.5205049 65.5030783,90.2989025 65.704313,90.1483512 C65.9691565,89.9501764 66.2417101,89.67711 66.4872783,89.3322245 C66.5724754,89.2120139 66.9510435,88.7799468 66.9510435,86.7816847 C66.9510435,86.7816847 67.0173507,86.2670449 67.3708609,86.69988 C67.6707855,87.0658888 67.884742,89.8061541 65.6306812,90.4444611 M65.0373855,82.9191973 C64.2756232,81.7685548 63.4452406,80.7926593 61.2767623,78.6323241 C59.8357362,77.3580143 58.0099739,76.1098206 55.2343217,74.9472722 C54.5257594,74.5044515 55.3919942,74.6538507 55.3919942,74.6538507 C55.3919942,74.6538507 58.0839913,75.3651291 60.833429,77.2754415 C62.2004377,78.2252209 64.1457072,79.984982 65.0655275,81.4828144 C67.8273014,85.9813045 67.1418696,86.4560022 66.9329246,86.055428 C66.5512725,85.3249467 66.2833449,84.8014734 65.0373855,82.9191973 M36.8236522,73.6937017 C36.732287,73.7843397 36.5021391,73.8139123 36.1490145,73.8857315 C35.8024435,73.9563984 34.8394464,74.069696 34.0645768,74.5820315 C33.6077507,74.8842864 32.9539304,75.6558622 32.9843855,75.9581171 C33.0240928,76.3567709 33.4947971,76.3145244 33.1131449,76.6064097 C32.5506899,77.0361724 32.4196174,77.4451959 32.1489913,77.2942604 C31.7472928,77.0707377 31.9084348,75.8540369 32.2291768,75.325955 C32.5506899,74.797873 33.0487652,74.2060372 34.1732899,73.7739701 C35.297429,73.3419031 36.8552638,73.4536644 36.8552638,73.4536644 C36.8552638,73.4536644 36.9878783,73.5293242 36.8236522,73.6937017 M31.2434348,71.3413366 C31.147058,71.2453217 31.3147536,70.9856974 31.4531507,70.9077333 C31.5495275,70.8531969 31.9963304,70.8493563 31.9963304,70.8493563 C32.1169942,70.8493563 32.4917072,70.8831535 32.4917072,70.757182 C32.4917072,70.6131596 32.2311043,70.43534 32.1227768,70.43534 C31.8887739,70.43534 31.9419739,70.7053339 31.7434377,70.7053339 C31.5445159,70.7053339 31.5013391,70.6653917 31.4412,70.6054784 C31.3806754,70.5455651 31.4543072,70.3151294 31.5688029,70.2010637 C31.6832986,70.086998 31.7735072,69.9909831 32.0082812,69.9909831 C32.3097478,69.9909831 32.4751304,70.2459987 32.7160725,70.4860359 C32.9570145,70.7260732 33.0611014,70.744124 33.2839246,70.7967401 C33.5129159,70.8508925 33.9358174,70.9753278 34.3274928,71.131256 C34.6131536,71.2453217 34.6860145,71.2852639 34.6860145,71.35017 C34.6860145,71.5445042 34.1054406,71.3908803 33.9057478,71.3413366 C33.4238638,71.221126 32.8637217,71.2871842 32.5626406,71.2871842 C32.2615594,71.2871842 32.2072029,71.3232858 31.9543101,71.3774382 C31.7068145,71.4304385 31.3398116,71.4373515 31.2434348,71.3413366 M29.9485159,73.5615852 C29.6713362,73.5615852 29.0869072,73.2136272 28.5930725,72.613342 C28.0992377,72.0134409 28.3259159,71.8747954 28.4855159,71.9888611 C28.4855159,71.9888611 29.4515971,72.9344159 29.7164406,73.012764 C29.843658,73.0500178 30.0610841,73.0335032 30.1470522,73.0696048 C30.3035681,73.1356631 30.1470522,73.5615852 29.9485159,73.5615852 M123.900101,72.0771948 C123.900101,72.0771948 123.995707,70.0931429 124.991858,65.9967632 C125.988009,61.9003835 127.208525,56.8430867 127.979539,54.3148224 C128.750554,51.786558 129.779087,48.6180663 129.779087,48.6180663 C129.779087,48.6180663 120.237783,58.0275265 117.699603,60.8442196 C117.699603,60.8442196 115.836061,59.46775 112.206125,59.2434592 C108.576188,59.0199365 96.3363333,58.3474482 94.2800377,58.7153773 C94.2800377,58.7153773 116.928588,70.1411504 117.651414,70.4291951 C118.374241,70.7172398 119.434386,71.5813739 119.771704,72.3494931 C119.771704,72.3494931 120.542719,74.797873 119.771704,78.3024169 C119.771704,78.3024169 118.663371,83.6312438 115.097429,86.0796238 C111.531487,88.5280037 110.374965,87.8558994 105.845255,87.8558994 C102.152867,87.1711212 100.737284,86.847743 97.6050377,84.8794375 C94.4727913,82.9111321 87.8227913,78.7824914 87.8227913,78.7824914 C87.8227913,78.7824914 87.0999652,77.67832 87.3890957,73.405657 C87.6782261,69.1329939 91.822429,63.7561595 92.6898203,62.8920254 C90.4731536,62.8920254 78.4742406,64.8603309 72.4988783,71.7734037 C73.8481536,72.2534782 75.8959681,73.1575545 76.3539507,73.6134332 C76.8115478,74.069696 66.9892087,70.3331802 63.7767768,70.1411504 C62.6846348,69.2132624 62.2829362,68.4128822 60.0662696,67.644763 C59.6807623,67.644763 59.5119101,67.812597 59.5119101,67.812597 L58.7169942,67.0206661 L57.4159072,67.0206661 L55.6329362,66.2525469 L55.1028638,66.8766438 C55.1028638,66.8766438 53.1271391,68.07683 52.6934435,68.5088971 C52.2597478,68.4128822 51.5045391,67.9328077 51.5045391,67.9328077 C51.5045391,67.9328077 51.4887333,68.1486492 50.139458,67.812597 C48.7901826,67.4765449 39.5137217,66.2283512 36.1648203,66.3723735 C32.8155333,66.5163959 29.1775014,66.7084257 27.2499652,67.7165821 C25.322429,68.7247386 25.2742406,69.3250237 26.0209681,70.0689472 C25.9006899,70.6212249 25.5390841,71.4611632 27.0329246,72.7093569 C28.5267652,73.9579347 29.6111971,74.4860166 29.8278522,74.4860166 C30.0448928,74.4860166 30.3340232,74.3900017 30.3340232,74.6058432 C30.3340232,74.8220688 30.0206058,75.7342103 30.3340232,76.0460667 C30.6470551,76.3583072 31.1532261,76.2380965 31.1532261,76.5741487 C31.1532261,76.9102008 30.8640957,79.6946329 31.1532261,79.6946329 C31.4423565,79.6946329 32.2372725,79.8866627 32.5506899,80.1985191 C32.8637217,80.5107596 33.2253275,80.5825787 33.2253275,80.3667372 C33.2253275,80.1505117 32.6470667,77.4144711 34.5503159,75.758022 C35.7669768,74.5459299 37.5622841,73.3576495 40.9354725,73.0454091 C44.3086609,72.7335527 46.8865478,73.5496793 49.8021391,75.062106 C52.7173449,76.5741487 55.1028638,77.6303126 58.3796754,80.1985191 C61.656487,82.7671097 63.5034522,85.2957581 63.7285884,86.2236461 C63.9537246,86.7997355 62.3153188,87.9519143 62.3153188,87.9519143 C62.3153188,87.9519143 42.2365594,87.7921455 41.3367855,87.7921455 C40.4377826,87.7921455 39.9235159,87.3435639 39.6983797,87.5678547 C39.473629,87.5678547 38.7026145,88.3037129 39.473629,89.0718321 C39.473629,89.0718321 40.3090232,90.160257 46.5411333,89.9359662 C47.4409072,89.9359662 44.1001014,90.4483017 44.1001014,90.4483017 C44.1001014,90.4483017 43.9875333,90.5608312 44.2928551,90.8646223 C44.5977913,91.1684135 47.0554,93.9370991 50.3965913,95.7936432 C53.7377826,97.6494192 57.8172203,99.6657321 61.2867855,100.433851 C62.9575739,100.946187 63.7767768,101.762313 63.7767768,101.762313 C63.7767768,101.762313 64.3307507,101.242297 63.7767768,100.690403 C63.2224174,100.138125 63.3430812,98.833859 60.9660435,95.953412 C61.2227913,95.953412 61.7046754,95.6016134 65.3669942,101.682045 C66.1060116,102.418287 66.7983826,103.045073 67.9051739,104.14694 C68.9259971,105.163545 71.1496029,106.643327 73.1415188,107.346924 C75.1334348,108.051289 84.0640957,110.067602 85.573742,110.803461 C85.2206174,109.203468 79.983887,97.0095759 79.3416319,95.8251361 C79.9033159,96.3854791 80.3693942,96.8175461 84.2568493,97.8099561 C88.1443043,98.801598 97.8135971,101.202739 103.435835,101.074463 C109.058072,100.946187 113.202275,99.2494115 118.08511,96.1769347 C122.967945,93.1044579 124.509974,88.27222 125.024241,85.8718475 C125.538507,83.471475 125.827638,78.606208 124.478362,74.6058432 C123.803725,72.6217913 123.514594,71.8859331 123.385835,71.3735976 C123.900101,72.2054707 123.900101,72.0771948 123.900101,72.0771948" id="Fill-94" fill="#C4C7CB"></path>
                    <path d="M61.6803884,84.6394003 C61.6803884,84.6394003 61.7332029,86.0062684 61.9814696,86.3077552 C62.2586493,86.6438073 62.4271159,86.8715547 62.4271159,87.1115919 C62.4271159,87.3516292 62.2825507,87.5916664 62.2825507,87.5916664 L62.1503217,87.7237829 L59.7771391,87.7237829 C59.7771391,87.7237829 59.5843855,86.9675696 59.8611797,86.3315669 C59.9833855,86.0512034 60.331113,85.359512 61.6803884,84.6394003" id="Fill-96" fill="#FEFEFE"></path>
                    <path d="M55.7362907,83.471475 C55.7362907,83.471475 54.3796907,84.579487 53.8014299,85.7316658 C53.223169,86.8838446 53.3557835,87.6638696 53.3557835,87.6638696 L57.957969,87.6638696 C57.957969,87.6638696 58.0558878,87.4687673 57.5481748,86.8957504 C57.0061516,86.2835594 56.789111,85.9985872 56.4278907,85.2396854 C56.0516357,84.450443 55.7362907,83.471475 55.7362907,83.471475" id="Fill-98" fill="#FEFEFE"></path>
                    <path d="M49.633287,83.271188 C49.633287,83.271188 50.0376841,84.5193817 51.1475594,85.9027643 C51.9297536,86.847935 52.7416319,87.376017 52.7416319,87.376017 C52.7416319,87.376017 52.8256725,87.5557568 52.7416319,87.6398659 C52.6572058,87.723975 48.6575681,87.6517717 48.6575681,87.6517717 C48.6575681,87.6517717 48.0550203,84.6875998 49.633287,83.271188" id="Fill-100" fill="#FEFEFE"></path>
                    <path d="M44.5614765,84.4953779 C44.5614765,84.4953779 44.5448997,83.3355179 44.7858417,83.7917807 C44.931178,84.0671515 45.6065867,84.9731481 46.2981867,85.7216802 C46.7507722,86.2117403 47.2480765,86.5957999 47.4766823,86.8235472 C48.0553287,87.3996366 47.8745258,87.5920505 47.8745258,87.5920505 L44.7904678,87.5920505 C44.7904678,87.5920505 44.8436678,87.2679042 44.7299432,86.3795743 C44.614291,85.4728096 44.5614765,84.4953779 44.5614765,84.4953779" id="Fill-102" fill="#FEFEFE"></path>
                    <path d="M41.1412177,84.5013693 C41.5440728,85.0774587 42.3945017,85.8052516 42.7063771,86.1155718 C43.044467,86.452392 44.2965945,87.0876266 44.5012988,87.6157086 L41.0556351,87.6157086 C41.0556351,87.6157086 40.3089075,85.4553733 40.573751,83.9671424 C40.573751,83.9671424 40.7719017,83.9732873 41.1412177,84.5013693" id="Fill-104" fill="#FEFEFE"></path>
                    <path d="M56.6447,79.7186367 C56.6447,79.7186367 56.7291261,79.3464829 57.1022971,79.7186367 C57.4758536,80.0907904 59.3914391,81.7587612 59.993987,82.1190092 C60.1624536,82.2868432 60.2037029,82.3809378 59.8494217,82.8790631 C59.4897435,83.3852537 58.7168014,84.9268689 58.5120971,85.5959007 C57.8922014,85.3708418 57.2191058,84.5762225 57.0637464,83.9912997 C56.7449319,82.7926497 56.6447,81.8789719 56.6447,79.7186367" id="Fill-106" fill="#FEFEFE"></path>
                    <path d="M51.9945188,76.5741487 C51.9945188,76.5741487 55.4760348,78.4825408 56.283287,79.2863776 C56.4760406,79.4784074 56.1506725,79.5356323 55.861542,79.7007779 C55.1148145,80.1267 54.3865913,81.370285 53.6329246,82.3350427 C52.8356957,83.355105 52.2235101,84.5671971 52.0307565,84.0153034 C51.8380029,83.4630257 51.151029,81.1110447 51.9945188,76.5741487" id="Fill-108" fill="#FEFEFE"></path>
                    <path d="M45.4408957,73.8617278 C45.4408957,73.8617278 47.5368986,74.1977799 51.1032261,76.0700705 C50.8780899,76.4779417 49.9833275,76.8861971 49.5931942,77.4465401 C49.2670551,77.9147087 48.7508609,78.2987683 48.1313507,80.5228575 C47.6552493,82.2330749 47.588942,83.5031599 47.4166203,83.4152103 C47.2442986,83.3280288 46.6429072,83.1325424 46.0033507,81.9112329 C45.3364232,80.6388435 44.6455942,77.7503312 45.4408957,73.8617278" id="Fill-110" fill="#FEFEFE"></path>
                    <path d="M39.4414391,73.5496793 C39.4414391,73.5496793 42.3408391,73.3657148 44.5336043,73.6779552 C44.3165638,74.565901 43.4850246,76.6874463 42.9591928,78.5582006 C42.6033696,79.8229088 42.4449261,80.8272247 42.3809319,81.782765 C42.3524043,82.214448 41.9152391,81.8157941 40.8311928,80.4228099 C39.6025812,78.8439409 38.7668014,77.1982455 39.4414391,73.5496793" id="Fill-112" fill="#FEFEFE"></path>
                    <path d="M38.5138316,73.8639937 C37.1726519,74.3843945 35.1525939,74.8617805 33.5141881,78.2783747 C33.5141881,78.6866301 33.6868954,79.0234504 34.4297678,79.8868164 C36.2609272,82.0148906 38.6221591,83.5591942 38.6221591,83.5591942 C38.6221591,83.5591942 38.9112896,83.6313975 38.7667243,82.7430676 C38.6071243,81.7617953 38.5959446,77.2836604 38.5959446,76.9906229 C38.5959446,75.4543845 39.0558548,73.6301014 38.5138316,73.8639937" id="Fill-114" fill="#FEFEFE"></path>
                    <path d="M58.2228896,71.2813465 C58.0181852,71.5932029 57.632678,71.8094285 57.5363012,71.8094285 C57.4399243,71.8094285 56.8682171,71.645051 56.5243446,71.4852822 C56.3466258,71.4027094 55.6072229,71.0712659 55.1145446,70.0930661 C55.1145446,70.0930661 56.0964316,69.9010363 56.2170954,70.021247 C56.2355997,70.4118356 56.3196403,70.5731406 56.4642055,70.717163 C56.6087707,70.8611853 56.9938925,70.5251332 57.2298229,70.1898491 C57.4252751,69.9125581 57.4638258,69.6429483 57.4638258,69.6429483 C57.4638258,69.6429483 58.3555041,69.5649842 58.5239707,69.7332023 C58.6928229,69.9010363 58.4275939,70.9694901 58.2228896,71.2813465 M59.4214316,69.7451081 C59.1897417,69.6387236 58.8705417,69.4178893 58.7348432,69.2830844 C58.5995301,69.1478954 58.6288287,68.7092994 58.6288287,68.7092994 L57.713249,68.7092994 C53.9063649,68.8771334 52.3801417,69.9732395 52.3801417,69.9732395 C52.3801417,69.9732395 52.3643359,70.1495229 52.50042,70.2850959 C52.7089794,70.4928722 53.247533,70.7098658 53.5366635,70.7651704 C53.8257939,70.8216272 54.602591,70.6776048 54.602591,70.6776048 C54.602591,70.6776048 54.9183214,70.7014165 55.0636577,70.846207 C55.2089939,70.9909975 55.2772287,71.0831718 55.5123881,71.3174481 C55.747162,71.5513404 56.2675968,71.7510514 56.650791,72.0556107 C57.0339852,72.3601699 57.2552664,72.8932447 57.2552664,72.8932447 C57.2552664,72.8932447 58.2903533,72.2407274 59.2371591,71.4637748 C60.1045504,70.7509602 60.2830403,70.6933513 60.4757939,70.0450587 C59.8192751,69.7992605 59.813107,69.9252321 59.4214316,69.7451081" id="Fill-116" fill="#221F20"></path>
                </g>
                <rect id="Rectangle" x="0" y="0" width="150" height="150"></rect>
            </g>
        </g>
    </g>
</svg>