<?xml version="1.0" encoding="UTF-8" standalone="no"?>
<svg width="150px" height="150px" viewBox="0 0 150 150" version="1.1" xmlns="http://www.w3.org/2000/svg" xmlns:xlink="http://www.w3.org/1999/xlink">
    <!-- Generator: Sketch 39.1 (31720) - http://www.bohemiancoding.com/sketch -->
    <title>SLA</title>
    <desc>Created with Sketch.</desc>
    <defs></defs>
    <g id="Page-1" stroke="none" stroke-width="1" fill="none" fill-rule="evenodd">
        <g id="SLA">
            <g id="Group">
                <g id="Page-1" transform="translate(30.000000, 24.000000)">
                    <path d="M90.7614708,26.1178583 C90.7174235,25.6011432 90.6920876,25.0855859 90.6653571,24.5398107 C90.6376968,23.9752795 90.6089905,23.3916449 90.5576215,22.806158 C90.4008411,21.0194792 90.2081489,19.1562715 89.968504,17.1101353 C89.7214209,14.9993952 89.4365665,12.7336291 89.0287517,10.4673998 L88.9992319,10.302301 C88.8995155,9.74321135 88.7866662,9.10944518 88.5609676,8.46004904 C88.4380072,8.10623292 88.1769778,7.81690488 87.836919,7.65747923 C87.4967441,7.49805358 87.1064784,7.48207628 86.7545653,7.61325221 L86.6221911,7.66257344 C86.5266585,7.69811714 86.4391451,7.73065062 86.3517479,7.76353144 C86.0799101,7.86599455 85.8077236,7.96799455 85.5355372,8.06999455 C84.9327057,8.2958765 84.3093034,8.52939977 83.6953149,8.76662792 C79.5767223,10.3582216 75.2987926,11.201082 70.9805346,11.2719378 C68.8842805,11.3066711 66.7076023,11.1730638 64.5116317,10.8759787 C62.2477888,10.5698629 60.016836,10.0460854 57.8807185,9.31911827 C54.9137466,8.3093067 52.4952153,6.78162225 50.486707,4.64876867 C49.3508922,3.44259841 48.1626623,2.16777208 46.8591425,0.756675596 L46.8336904,0.726226107 C46.7182843,0.586251078 46.4778258,0.294839047 46.0585052,0.114110329 C45.6893916,-0.0449679909 45.269025,-0.0374424518 44.9058386,0.134602951 C44.4805908,0.335940068 44.2417594,0.650507605 44.1269344,0.801597276 C44.1171719,0.814448581 44.1077581,0.827415664 44.1009011,0.835867423 C42.7254414,2.44320681 41.2802498,3.9521353 39.8055384,5.32074143 C38.2478462,6.76633961 36.4801451,7.90674824 34.5515959,8.71024427 C30.8436074,10.2550638 26.7734784,11.118301 22.4541745,11.2762216 C20.6603239,11.3419832 18.8941336,11.2924304 17.2046483,11.1292999 C15.7534133,10.9889775 13.8536866,10.7657585 12.0293865,10.2805348 C10.3701183,9.83919092 8.70317957,9.23286402 7.09121277,8.64645085 C6.60553078,8.46965857 6.11973257,8.29298207 5.63288838,8.12001044 C5.46053461,8.05876413 5.28678621,8.00157003 5.11280536,7.94472327 C4.92673768,7.88370851 4.75101354,7.82605131 4.58388966,7.76480499 C3.94944649,7.53220795 3.46411315,7.71907287 3.23132516,7.85152236 C2.94658697,8.01326356 2.58223831,8.3417244 2.46357803,8.98753144 C2.40709527,9.29561544 2.34677727,9.60288899 2.28657548,9.91027832 C2.18674278,10.4193521 2.08353972,10.9456767 1.99672363,11.4767482 C1.87748225,12.2070729 1.77079259,12.9453862 1.66758953,13.6593862 C1.60982835,14.0591659 1.5521834,14.4589457 1.49209783,14.8582624 C1.39249757,15.5205099 1.29150268,16.18241 1.19039157,16.8443101 C1.06615275,17.6578788 0.94203014,18.4713317 0.820464368,19.2851319 C0.575357088,20.9273203 0.403933078,22.5404486 0.310957344,24.079595 C0.281553768,24.5662079 0.242503959,25.0671773 0.204732567,25.5514747 C0.132908812,26.4724849 0.0586444444,27.4249866 0.0408628352,28.3818879 L0.0369113665,28.5932976 C-0.00120868455,30.6345712 -0.040607152,32.7453112 0.0892102171,34.8492204 C0.234601022,37.2064509 0.375575479,39.3329367 0.62719106,41.4852409 C0.923551213,44.0201898 1.34566105,46.5309412 1.88178238,48.9479128 C2.92322682,53.641881 4.44953972,58.3071364 6.54811826,63.2103146 C8.89982324,68.7048844 12.1028373,74.1426075 16.0682524,79.3726257 C17.6890519,81.5103419 19.3963188,83.5015995 21.1424031,85.2907096 C21.4001783,85.554914 21.65714,85.8199287 21.9139854,86.0849435 C23.0790876,87.28683 24.2837045,88.5294701 25.5679318,89.6858561 C28.876822,92.6650434 32.1110991,95.1140854 35.4555525,97.1731886 C38.3140914,98.933007 41.2417811,100.41137 44.1573839,101.567525 C44.3799446,101.655747 44.597624,101.733086 44.8080978,101.807995 L44.9591834,101.861947 C45.1958066,101.946696 45.4355678,101.988839 45.673237,101.988839 C45.9707594,101.988839 46.2649114,101.92273 46.5458143,101.790859 C47.0658973,101.547032 47.6024835,101.303783 48.1212881,101.068639 C49.1695895,100.593604 50.2535704,100.102244 51.3080314,99.5580899 C56.8668181,96.6897017 61.9855972,92.9808844 66.9567773,88.2195337 C68.9319305,86.3278447 70.7514656,84.2685099 72.2708054,82.5035973 C75.0648424,79.2578901 77.6663034,75.6289594 80.0030161,71.7174157 C84.7788309,63.7226302 88.0658718,54.713402 89.7723252,44.9403896 C90.1622421,42.70762 90.4382639,40.6224667 90.6161962,38.5660263 C90.804472,36.3884826 90.8961693,34.7022988 90.9137185,33.0985485 C90.9383571,30.8335927 90.9640416,28.4915292 90.7614708,26.1178583" id="Fill-1" fill="#FFFFFF"></path>
                    <path d="M45.5048115,1.38924926 C45.6513645,1.45234801 45.7292317,1.58514484 45.8282508,1.69235482 C47.0362381,3.00006198 48.2489903,4.30313802 49.4696455,5.5993832 C51.6942061,7.96159205 54.3663287,9.59116073 57.429763,10.6337373 C59.6769865,11.3986795 61.9720925,11.9347294 64.3239137,12.2527703 C66.5415011,12.5526341 68.7666429,12.6977033 71.0034066,12.6610018 C75.558869,12.5864411 79.9542968,11.7024797 84.1996851,10.0619121 C85.0790031,9.72222089 85.9633185,9.39549671 86.8454258,9.06286788 C86.9695484,9.01609376 87.0940197,8.97013008 87.2431295,8.91455687 C87.4524411,9.51671578 87.5489034,10.1173696 87.6559418,10.7125818 C88.0472534,12.8869995 88.326413,15.0772788 88.5832585,17.2710313 C88.8037272,19.154037 89.0026953,21.0391267 89.1683083,22.9272266 C89.2648868,24.0274604 89.2780197,25.1348724 89.3719252,26.2354536 C89.5664769,28.5156919 89.5441627,30.7999825 89.5191755,33.0834627 C89.4996506,34.8740779 89.3811065,36.6616829 89.2266506,38.4467407 C89.0452317,40.5446295 88.7604935,42.6282776 88.398353,44.7023162 C86.7681397,54.038037 83.680648,62.8443072 78.8045356,71.00697 C76.5688179,74.7494785 74.0610299,78.2899553 71.2121372,81.5992243 C69.5413632,83.540003 67.8383964,85.4479008 65.9902713,87.2180234 C61.3957591,91.6184956 56.3374143,95.3982844 50.6665918,98.3244456 C49.125519,99.1197215 47.5231985,99.7969042 45.9516761,100.53406 C45.7735114,100.617651 45.6066199,100.61742 45.4311282,100.554552 C45.1777693,100.463783 44.9230158,100.375792 44.6729111,100.27657 C41.7148881,99.1037442 38.8971423,97.6587249 36.1887591,95.9912969 C32.7211129,93.8565909 29.5226314,91.3738577 26.503012,88.655054 C24.9783262,87.2821641 23.5741602,85.7894445 22.1423338,84.3223117 C20.3614999,82.4974263 18.7162943,80.5600052 17.1811487,78.5352879 C13.4468945,73.6099961 10.2639865,68.3496443 7.83104393,62.6654309 C5.89017548,58.1307725 4.31330702,53.4698009 3.2436212,48.6481301 C2.70668633,46.2279167 2.30026616,43.7867476 2.01250626,41.3246227 C1.75752031,39.1436057 1.61642963,36.9547158 1.48126616,34.7639734 C1.35040281,32.6450132 1.39596092,30.5246636 1.43524317,28.4075557 C1.46150881,26.993449 1.61759183,25.5784161 1.7031295,24.1629201 C1.79761609,22.5977237 1.968459,21.0401687 2.19996858,19.4894445 C2.42020485,18.0138599 2.64939004,16.5395489 2.87125338,15.0641959 C3.03988812,13.9430064 3.19050881,12.8189224 3.37332235,11.6999326 C3.50790473,10.8760597 3.68467484,10.0589019 3.83552797,9.23746039 C3.8664424,9.06911986 3.92001967,9.0019689 4.10213589,9.06865675 C4.45300307,9.19728558 4.81212184,9.3033378 5.16426743,9.4284933 C7.32083959,10.1949405 9.45300562,11.0332856 11.6695471,11.6228247 C13.4403862,12.0939235 15.2492291,12.3362459 17.0700427,12.5119961 C18.8788856,12.6867044 20.6915637,12.7309314 22.5054041,12.6645909 C26.8551576,12.5056284 31.0631231,11.6694831 35.0896697,9.99198252 C37.1994054,9.11311532 39.0819315,7.89119932 40.7561921,6.33723337 C42.3163249,4.88931964 43.779763,3.35260454 45.1621959,1.73716073 C45.2670261,1.61478388 45.3471014,1.46404154 45.5048115,1.38924926" id="Fill-4" fill="#005096"></path>
                    <path d="M45.5328088,4.17026016 C46.4014346,5.18968127 47.2902826,6.15989694 48.2077207,7.10371532 C48.8645943,7.77939296 49.5285572,8.44603995 50.2606249,9.04599909 C52.1617462,10.6042488 54.3343567,11.6587505 56.6277194,12.4901489 C58.9583886,13.3352091 61.3648331,13.8705644 63.8176492,14.2222965 C66.4368918,14.5979946 69.0688024,14.7265076 71.7090808,14.6286756 C75.9452877,14.471797 80.0691102,13.7192431 84.0417309,12.2134406 C84.44757,12.0595723 84.8561983,11.9128822 85.2642456,11.7650343 C85.5590949,11.6581716 85.5624653,11.6592136 85.605699,11.9404372 C85.84116,13.4739106 86.0813861,15.006805 86.3076658,16.5415519 C86.507796,17.8993907 86.6875879,19.2602397 86.8842315,20.6185417 C87.0745994,21.9340059 87.1975598,23.2565326 87.2950681,24.5809117 C87.5091447,27.4873907 87.5429646,30.3991955 87.4913631,33.3118107 C87.4527782,35.4920173 87.2922788,37.6646983 87.0603043,39.8334429 C86.6055368,44.086183 85.7944397,48.269225 84.62004,52.3818742 C81.6614359,62.742805 76.6773554,72.0316359 69.7204461,80.2729117 C68.2339966,82.0337721 66.6845559,83.7387119 65.0360962,85.3513771 C62.4861204,87.8460354 59.7544934,90.1231478 56.8487692,92.1995019 C53.6458714,94.4881921 50.2287807,96.3970161 46.6564206,98.0404781 C45.6363605,98.5097244 45.6324091,98.4990729 44.5975891,98.0760218 C42.096077,97.0532431 39.7246147,95.7828163 37.4198625,94.3782034 C33.5800808,92.0383396 30.0779174,89.274267 26.8143529,86.1904168 C25.3547501,84.8113907 23.947911,83.3820014 22.599298,81.9030593 C19.6807897,78.7027369 17.0860693,75.25083 14.8036313,71.5680627 C11.4343069,66.1313816 8.76171941,60.3788595 6.85048697,54.2769208 C5.77371175,50.8392545 4.95250358,47.3419628 4.38407318,43.7872454 C3.95731456,41.1185734 3.68129285,38.4331137 3.52892886,35.7331818 C3.37145121,32.9414384 3.35831839,30.1503896 3.48964662,27.3598039 C3.62713448,24.4368844 3.9008318,21.5257743 4.34188544,18.6301784 C4.67218174,16.46236 4.95320089,14.2871319 5.342653,12.1283442 C5.35845888,12.0402375 5.36787267,11.9506257 5.39076794,11.8643714 C5.42226347,11.7458152 5.4903682,11.6918629 5.6233235,11.7378266 C5.96268493,11.8554565 6.3076249,11.9569934 6.64477816,12.0801807 C8.31776028,12.6918334 9.99004508,13.3041807 11.7331077,13.6977085 C13.7084934,14.1435678 15.7045662,14.4405371 17.7264397,14.580049 C19.4485828,14.6989526 21.1710745,14.7247709 22.8939148,14.6497471 C27.8739276,14.4326642 32.6489289,13.3540808 37.1684793,11.2284054 C39.0712277,10.3334452 40.7259633,9.08327946 42.2686632,7.67148831 C43.4188893,6.61872327 44.5372711,5.53979251 45.4263516,4.24898888 C45.4420413,4.22606493 45.4731881,4.21356095 45.5328088,4.17026016" id="Fill-6" fill="#E82227"></path>
                    <path d="M45.5309028,7.69206198 C46.0404098,8.35616186 46.6016346,8.97383496 47.1770382,9.57958297 C48.8076001,11.2961006 50.7686908,12.5464978 52.8741263,13.5900007 C55.4246831,14.8541755 58.1215605,15.6893946 60.9045567,16.2601778 C63.1087789,16.712289 65.3360126,16.9776511 67.5843983,17.0974808 C69.5342157,17.201449 71.4814762,17.1920711 73.4257151,17.0490858 C76.4512617,16.8266772 79.4303204,16.3341596 82.325701,15.4023821 C82.5962604,15.3154331 82.8711199,15.2413355 83.1451659,15.1655012 C83.5219501,15.0613015 83.5321774,15.0613015 83.6005146,15.4565659 C83.7349807,16.2356329 83.8733983,17.0144683 83.9815989,17.797356 C84.1921889,19.3194831 84.4058006,20.841726 84.574784,22.3687158 C84.7077393,23.5699076 84.7744494,24.7781619 84.8725388,25.9831743 C85.0763881,28.4880211 85.0383843,30.9990041 84.9844584,33.5054717 C84.9537764,34.934398 84.8659143,36.3676079 84.7352834,37.7957237 C84.600701,39.2674876 84.4475235,40.7365886 84.2351902,42.1985115 C83.8037828,45.1684365 83.1734073,48.0965659 82.396595,50.9970245 C80.2461825,59.0258486 76.7457623,66.4270427 71.9937725,73.2429814 C69.5779143,76.7082027 66.8785963,79.9411743 63.8782693,82.9284661 C62.2104009,84.5891789 60.4143421,86.1015807 58.6508249,87.6525364 C56.4969258,89.5468883 54.0939679,91.0977283 51.6583524,92.6005205 C49.8715912,93.7029541 47.9980139,94.6378577 46.0871301,95.503642 C45.7397496,95.6609837 45.4224699,95.6934014 45.0540535,95.5511108 C43.6948645,95.0265228 42.406337,94.3604547 41.1340803,93.6601165 C37.5131404,91.6667748 34.1645031,89.2890518 31.0229692,86.6094967 C28.9475184,84.8392583 26.9623702,82.9770926 25.1243562,80.9669632 C18.8296665,74.0828316 13.9453026,66.3306 10.6417585,57.5992379 C9.11591047,53.5662436 7.95510843,49.4388906 7.17806373,45.203054 C6.75804585,42.9130904 6.46296411,40.6059916 6.22994368,38.2881255 C5.90813142,35.0867612 5.8530433,31.8792606 5.92196156,28.6693287 C5.95461928,27.1488225 6.10465888,25.6304002 6.21750817,24.1120938 C6.42902797,21.2667453 6.92981852,18.4590245 7.35657714,15.6421573 C7.45117995,15.0174218 7.32554649,14.9895194 8.03390536,15.226516 C9.95478404,15.8688497 11.9109935,16.3603253 13.9132259,16.6700302 C15.0388134,16.8440438 16.1705605,16.9674627 17.305678,17.0544116 C19.0709386,17.1896397 20.8404992,17.2154581 22.6087815,17.152012 C28.1372349,16.9534536 33.4449871,15.8162867 38.4418517,13.391558 C41.0538888,12.1240257 43.3014609,10.396625 45.1134418,8.1220597 C45.2329156,7.97212781 45.3349564,7.80228218 45.5309028,7.69206198" id="Fill-8" fill="#005096"></path>
                    <path d="M23.9230284,76.8293407 C23.9227959,76.9624849 23.9230284,77.0956291 23.9230284,77.2536654 C23.7065111,77.2250683 23.6348036,77.0637902 23.5389223,76.9488232 C22.5517525,75.7655768 21.6138598,74.5438924 20.7185034,73.2907165 C18.8308636,70.6489049 17.0855928,67.9186393 15.576248,65.0419151 C15.4198163,64.743788 15.3369517,64.441956 15.3137078,64.1060854 C15.25246,63.2251342 15.2691957,62.345225 15.2983668,61.4645053 C15.3097563,61.121225 15.3194026,60.7777131 15.3192863,60.4343169 C15.3151024,50.4135405 15.3199837,40.3926484 15.298483,30.371872 C15.2915098,27.1163237 15.2707065,23.8607755 15.2830258,20.6052272 C15.2853502,19.9781762 15.3040616,19.3511251 15.319635,18.724074 C15.3299785,18.3086642 15.33393,18.3050751 15.7589453,18.3464077 C16.9519402,18.4624168 18.1450513,18.5792363 19.3444383,18.5993816 C20.6937487,18.622074 22.0427103,18.6057494 23.3907423,18.5404509 C23.4955724,18.5353566 23.6007512,18.5375564 23.7053489,18.5311886 C23.8732863,18.5207687 23.9580105,18.590351 23.9526644,18.7637857 C23.9485967,18.8980876 23.9528968,19.0326211 23.9528968,19.1670388 L23.9230284,76.8293407 Z" id="Fill-10" fill="#EB1D25"></path>
                    <path d="M67.0828872,19.1293995 C67.0830034,18.4848661 66.9784057,18.5308297 67.6701452,18.5567639 C69.4824747,18.6246095 71.2956178,18.6574904 73.1085284,18.5330295 C73.8114249,18.4847503 74.5112997,18.4138944 75.2117557,18.342807 C75.7082461,18.2925596 75.7175437,18.302748 75.7202167,18.7878558 C75.7255628,19.728664 75.7199843,20.669588 75.7198681,21.6103961 C75.7183572,35.2903212 75.714522,48.9702463 75.7187059,62.6502872 C75.719287,64.5936129 75.8289983,64.0315131 74.9422423,65.6936152 C72.8534262,69.6089796 70.3497059,73.2499512 67.5747289,76.7101941 C67.4481656,76.8678831 67.3321784,77.043286 67.0814926,77.1780511 L67.0814926,76.6576311 L67.0828872,19.1293995 Z" id="Fill-12" fill="#EB1D25"></path>
                    <path d="M41.1936778,14.1184788 C41.1935616,13.9499067 41.2291248,13.7720724 41.1353355,13.5744402 C40.9254428,13.690565 40.7405373,13.7838817 40.5646969,13.8916706 C39.8108962,14.354086 39.0282729,14.7623176 38.2240328,15.1291008 C36.5599996,15.8879067 34.8488974,16.5193573 33.0829396,17.000876 C32.5944683,17.1340202 32.5945845,17.1343675 32.5941197,17.6601133 L32.5941197,17.7497251 L32.5693649,85.5062064 C32.5683189,85.890472 32.6896522,86.1514345 32.9774121,86.3865787 C33.6260341,86.9169555 34.2892997,87.4278817 34.9582602,87.9323244 C36.6673866,89.2215072 38.4427582,90.413321 40.2735667,91.5233959 C40.5505181,91.6912733 40.8218911,91.87617 41.1552091,91.9744652 L41.1936778,14.1184788 Z" id="Fill-14" fill="#EB1D25"></path>
                    <path d="M49.8207102,91.3774931 L49.8207102,91.9192161 C50.1005672,91.9009233 50.2645531,91.7637269 50.4395799,91.66219 C53.1670231,90.0791639 55.6888737,88.2068098 58.1430844,86.2380129 C58.3845889,86.0443171 58.4416527,85.8316338 58.4414203,85.5452002 L58.4526936,17.5843716 C58.4526936,17.5246304 58.4475799,17.4644261 58.4533909,17.4052638 C58.4709401,17.2287031 58.3948162,17.128324 58.2231598,17.0780765 C57.935981,16.9941378 57.6553105,16.8869278 57.3668533,16.8079675 C54.8689439,16.1239539 52.497133,15.1450549 50.273502,13.8156974 C50.1521687,13.7431049 50.0352517,13.6375158 49.8229184,13.6681968 L49.8207102,91.3774931 Z" id="Fill-16" fill="#EB1D25"></path>
                    <path d="M67.9694573,50.0302474 C67.9694573,62.40316 57.9008826,72.4334302 45.4807192,72.4334302 C33.0604395,72.4334302 22.9918648,62.40316 22.9918648,50.0302474 C22.9918648,37.6573348 33.0604395,27.6270647 45.4807192,27.6270647 C57.9008826,27.6270647 67.9694573,37.6573348 67.9694573,50.0302474" id="Fill-18" fill="#FFFFFF"></path>
                    <path d="M66.6955852,50.0302474 C66.6955852,61.7023587 57.1973004,71.1645085 45.4806146,71.1645085 C33.7639287,71.1645085 24.2657602,61.7023587 24.2657602,50.0302474 C24.2657602,38.3581362 33.7639287,28.8959864 45.4806146,28.8959864 C57.1973004,28.8959864 66.6955852,38.3581362 66.6955852,50.0302474" id="Fill-20" fill="#005096"></path>
                    <path d="M65.6310014,50.0302474 C65.6310014,61.1166402 56.6093335,70.1038706 45.4807192,70.1038706 C34.3519886,70.1038706 25.3303207,61.1166402 25.3303207,50.0302474 C25.3303207,38.9438547 34.3519886,29.9566243 45.4807192,29.9566243 C56.6093335,29.9566243 65.6310014,38.9438547 65.6310014,50.0302474" id="Fill-22" fill="#FFFFFF"></path>
                    <path d="M60.7131545,48.7421414 C60.0545377,48.7421414 59.3959208,48.7385523 58.7374202,48.7441096 C58.5471686,48.7456148 58.4328084,48.7162073 58.433622,48.4806 C58.4414087,46.0948883 58.440014,43.7092924 58.4432682,41.3235807 C58.4432682,41.3011199 58.4709285,41.278659 58.5020754,41.2311902 C58.7434636,41.3371267 58.8796731,41.5506204 59.017742,41.7549678 C59.3617522,42.2641573 59.6175517,42.8204683 59.8480153,43.3865047 C60.4278352,44.8110313 60.8917842,46.2713333 61.174198,47.7852402 C61.1987203,47.9167635 61.2155722,48.0499076 61.2318429,48.182936 C61.2998314,48.7419099 61.2992503,48.7421414 60.7131545,48.7421414 M63.7985543,47.3283821 C63.5608851,45.4755943 62.986295,43.7242277 62.1311507,42.06502 C60.7058327,39.2993264 58.775424,36.9526318 56.2627548,35.0949814 C56.1389808,35.0034014 56.0284559,34.8655103 55.8492452,34.872457 L55.8492452,59.4208815 C56.0098608,59.4110404 56.0736654,59.2986204 56.1465351,59.2152606 C57.0169042,58.2208474 57.7575722,57.1390222 58.3439004,55.9539235 C58.4998672,55.6387771 58.5580932,55.3100847 58.5550715,54.9585841 C58.5456577,53.8687703 58.5493768,52.7787249 58.553212,51.6887952 C58.5543742,51.3686704 58.5621609,51.3609133 58.8781622,51.358482 C59.5375926,51.3531562 60.1971392,51.3638077 60.8564534,51.353272 C61.0828493,51.3496829 61.1701303,51.4154445 61.1702465,51.6549882 C61.1709438,52.4793242 61.1089987,53.2934717 60.9002682,54.0946522 C60.356825,56.1806159 59.3256079,58.0192788 58.0267369,59.7200506 C56.9862222,61.0824048 55.7975275,62.2977215 54.3782529,63.2752311 C54.2440192,63.3677373 54.1668493,63.4651062 54.1681277,63.6371516 C54.1745198,64.4415739 54.170917,65.2459961 54.170917,66.063617 C54.3557063,66.1228951 54.4618148,66.0509973 54.5707126,66.0092016 C55.020599,65.8363457 55.4362005,65.5974967 55.824258,65.3155784 C57.8286986,63.8597918 59.5602554,62.1249814 60.9380396,60.0752561 C62.7696616,57.3503162 63.7434662,54.3199553 63.8906003,51.0409042 C63.946037,49.8035898 63.9567292,48.5614127 63.7985543,47.3283821" id="Fill-24" fill="#005096"></path>
                    <path d="M45.8395358,50.7268114 C45.6640441,50.4671224 45.4876226,50.2056967 45.2858653,49.9665003 C44.7846098,49.3723301 44.2688269,48.7902007 43.7583902,48.2037875 C43.3852088,47.7749476 43.0131897,47.3449498 42.7141564,46.8596104 C42.5320402,46.5640304 42.4047797,46.2550202 42.4087312,45.8932154 C42.4195396,44.8928976 42.4117529,43.892464 42.4137286,42.8921462 C42.4140773,42.7731269 42.4153557,42.6510974 42.4408078,42.5358988 C42.5003123,42.2664844 42.647795,42.1446865 42.9034783,42.1303301 C43.1956545,42.1138897 43.3387209,42.2178579 43.4319291,42.5056808 C43.4836469,42.665338 43.4848091,42.8287001 43.4846928,42.9931042 C43.4845766,43.4110611 43.4873659,43.8292495 43.4838793,44.2472064 C43.4824847,44.404548 43.5199074,44.495086 43.7085319,44.4931178 C44.4579163,44.4854765 45.207417,44.4850134 45.9566852,44.4936967 C46.1611156,44.4960123 46.2228282,44.4075582 46.204698,44.2254402 C46.2031871,44.2106207 46.204698,44.1955696 46.204698,44.1806343 C46.2033033,42.5979555 46.2217822,41.0149294 46.1947031,39.4328295 C46.1701807,37.9991564 45.2768001,36.7889339 43.9679342,36.3790815 C43.1105817,36.1105934 42.2498589,36.1470633 41.4181909,36.4965957 C40.5884987,36.8453176 40.0760862,37.466464 39.8722369,38.345447 C39.8071539,38.626439 39.801924,38.9074311 39.8018078,39.1905072 C39.8005294,41.7286978 39.8095945,44.2670043 39.7942535,46.805195 C39.7909994,47.3503914 39.9243033,47.8379305 40.2068333,48.2900418 C40.3805817,48.5682552 40.5706009,48.8377852 40.7707312,49.0979373 C41.290698,49.7743096 41.8799317,50.3916354 42.4488269,51.0264436 C42.8280517,51.4494947 43.2093685,51.8712722 43.5218831,52.3482756 C43.7131807,52.6403823 43.84509,52.9471927 43.8438116,53.3083028 C43.8383493,54.9357875 43.8404413,56.5632722 43.8427656,58.1907569 C43.8429981,58.3728749 43.8190568,58.5502461 43.7531603,58.7171973 C43.6609981,58.9507205 43.5104936,59.1345753 43.2386558,59.160741 C42.9968027,59.1838965 42.7691284,59.0273653 42.6452382,58.7574879 C42.550984,58.5520985 42.5077503,58.333279 42.4999636,58.1065866 C42.4785792,57.4790724 42.5017069,56.8530633 42.5554004,56.2275174 C42.5886392,55.8408204 42.6238538,55.4529657 42.5275077,55.0691632 C42.445689,54.7430179 42.3718895,54.6705412 42.0342714,54.665447 C41.3898333,54.6557217 40.7451628,54.6701939 40.1009572,54.6580372 C39.8631718,54.6535219 39.7929751,54.7368817 39.7963455,54.9701734 C39.8084323,55.8210225 39.8011105,56.6722188 39.8011105,57.5232994 C39.8011105,58.2399623 39.8310951,58.9581303 39.7951833,59.6730565 C39.7022075,61.5254969 41.2999955,63.4127864 42.9778589,63.88759 C44.3748193,64.2828545 45.6155805,63.7003778 46.0732535,62.4118897 C46.1850568,62.0973221 46.2065575,61.7729135 46.2062088,61.4421371 C46.203652,58.2917149 46.1991194,55.1411768 46.2107414,51.9908704 C46.2124847,51.5216241 46.0966137,51.1072563 45.8395358,50.7268114" id="Fill-26" fill="#005096"></path>
                    <path d="M54.167872,58.7193044 C54.1671747,58.6245984 54.220752,58.5098629 54.086402,58.4194406 C53.8712794,58.6177675 53.6558082,58.822578 53.4338286,59.0202102 C52.5814736,59.7794792 51.6786792,60.4659242 50.617245,60.916183 C50.3920112,61.0116994 50.1684046,61.1268981 49.8885476,61.124351 L49.8885476,60.5629457 C49.8879665,52.7549094 49.8873854,44.9467573 49.8868043,37.138721 C49.8868043,37.0192386 49.8825042,36.8996404 49.8873854,36.7805053 C49.8933126,36.6389094 49.8349704,36.5586756 49.6916715,36.5316994 C48.9444953,36.3907982 48.1977839,36.2467709 47.3880815,36.0918606 L47.3880815,36.6096177 C47.3880815,45.5523896 47.3879653,54.4950456 47.3880815,63.4378175 C47.3880815,63.512494 47.386222,63.5871705 47.3884301,63.6617312 C47.3979602,63.9955178 47.4010981,64.0007278 47.7159372,63.9368186 C49.9565361,63.4823918 52.0569742,62.6979991 53.918116,61.340276 C54.0940725,61.2119946 54.1789129,61.0897335 54.1751939,60.8690615 C54.1628746,60.1526302 54.1728695,59.4358515 54.167872,58.7193044" id="Fill-28" fill="#005096"></path>
                    <path d="M53.2147313,49.9238363 C53.2148475,50.4907989 53.2099663,51.0578772 53.2165908,51.624724 C53.2207747,51.9923176 53.2708654,52.0417546 53.6280084,52.0528692 C53.8972894,52.0612052 54.1671515,52.0548375 54.4366649,52.0548375 C55.1797734,52.0548375 55.1836087,52.0452279 55.1142255,51.3190713 C55.0992332,51.1616138 55.0362421,51.1146082 54.8918973,51.1173868 C54.6523686,51.1220179 54.4127236,51.1194708 54.1730787,51.1168079 C54.0869599,51.1158817 53.9630697,51.1346377 53.9509829,51.0247648 C53.9283201,50.8186808 53.9327364,50.6084288 53.9418015,50.400724 C53.9456368,50.3120384 54.0343124,50.2973346 54.111366,50.29664 C54.3210263,50.2947875 54.5306866,50.2958295 54.7403469,50.2931666 C54.8280927,50.2921246 54.9508207,50.3101859 54.9749944,50.2121224 C55.0288041,49.9945764 55.0432153,49.758506 54.9752268,49.5496434 C54.9174656,49.3720406 54.715011,49.4666309 54.575896,49.4536638 C54.4423596,49.4411598 54.3063826,49.445212 54.1719165,49.4519271 C54.008163,49.4599158 53.9298309,49.4083948 53.9262281,49.2262767 C53.9196036,48.8957319 53.9215793,48.8823017 54.2667517,48.8746604 C54.3267211,48.8733868 54.3865742,48.8745446 54.4465436,48.8745446 C55.1547862,48.8738499 55.1483941,48.8741973 55.1152715,48.1730486 C55.1064388,47.9867625 55.0558833,47.9057183 54.8572639,47.9101178 C54.4081911,47.9203062 53.9583047,47.925632 53.5095806,47.9083812 C53.2621489,47.8988874 53.2067121,48.0013505 53.2110123,48.2229487 C53.2219369,48.7897955 53.2146151,49.3568738 53.2147313,49.9238363" id="Fill-30" fill="#005096"></path>
                    <path d="M51.2515022,49.0701276 C51.2489453,48.917417 51.3175149,48.8643909 51.4661599,48.85756 C51.8012212,48.8421616 52.0213413,48.9553921 52.1257065,49.2725067 C52.2891114,49.7689607 52.2562212,50.2701616 52.0768943,50.758627 C52.0054192,50.9533648 51.8557282,51.0694897 51.6447895,51.1041072 C51.3233259,51.1566701 51.2576618,51.1038756 51.253013,50.7661526 C51.249294,50.4984749 51.2521995,50.2305657 51.2521995,49.9627723 L51.2528968,49.9627723 C51.2528968,49.6652241 51.2563834,49.36756 51.2515022,49.0701276 M50.5404702,49.8897167 C50.540354,50.442207 50.5382621,50.9948132 50.5410513,51.5473035 C50.5430271,51.9270538 50.5460488,51.9280958 50.9431714,51.9309902 C51.2129172,51.9329585 51.483128,51.92277 51.7525252,51.9330742 C52.2354179,51.9517144 52.5744307,51.7273376 52.7272595,51.2916667 C53.0455852,50.3844341 53.011649,49.468518 52.6529951,48.5794624 C52.4759926,48.1405498 52.1110628,47.9153625 51.6281701,47.9063319 C51.3584243,47.9013535 51.0879811,47.9148994 50.8189326,47.9001957 C50.5989287,47.8881548 50.5332646,47.9774193 50.5369837,48.1874397 C50.547211,48.7546338 50.5404702,49.322291 50.5404702,49.8897167" id="Fill-32" fill="#005096"></path>
                    <path d="M36.425394,48.9866636 C35.5414272,48.9779802 34.657228,48.976012 33.7733774,48.9875898 C33.540357,48.9906 33.495961,48.8960098 33.5107209,48.6937464 C33.56209,47.9900506 33.723984,47.3106681 33.936666,46.640432 C34.3452944,45.3529859 34.9074489,44.1381323 35.6701986,43.0201846 C35.9378525,42.6279303 36.218523,42.2414649 36.6441194,41.9529473 C36.7446494,42.1112152 36.7110619,42.2335921 36.7111782,42.3485591 C36.713735,44.4083571 36.7130377,46.4682708 36.7130377,48.5281846 C36.7130377,48.58781 36.7073429,48.6481301 36.7136188,48.7071766 C36.7367465,48.9247226 36.6363327,48.9887476 36.425394,48.9866636 M32.5693416,44.3167771 C32.5624847,44.3315966 32.556325,44.3464161 32.5494681,44.3613514 C32.5300594,44.4045364 32.5108831,44.447953 32.4918231,44.4913696 C32.3830415,44.7370495 32.2823953,44.9813401 32.1905817,45.223894 C32.1903493,45.2244729 32.1901169,45.2250518 32.1898844,45.2257464 C32.1781462,45.256659 32.1665243,45.2876874 32.1550185,45.3186 C32.0898193,45.4920347 32.0271769,45.6665115 31.9675562,45.8424933 C31.7036213,46.6221392 31.5051181,47.4149837 31.4102829,48.2345728 C31.3936635,48.3789473 31.3822739,48.5233219 31.3747197,48.6676965 C31.2750032,49.6555103 31.2923199,50.5876352 31.3826226,51.4455467 C31.4399189,52.2324865 31.5942586,52.9924502 31.8163544,53.7336579 C32.3659572,55.7286204 33.1631079,56.9540098 33.1631079,56.9540098 C33.2209853,57.0678191 33.2879278,57.1452742 33.4328538,57.1444638 C34.1799138,57.1400642 34.92709,57.1423798 35.7572471,57.1423798 C35.5550249,56.7855535 35.4019636,56.5140552 35.2477401,56.2432515 C34.7970402,55.4516806 34.3400645,54.663583 34.0189496,53.8068293 C33.7288653,53.0328565 33.5417516,52.23897 33.5078155,51.4103503 C33.4995639,51.2091289 33.5405894,51.1131494 33.773145,51.1161596 C34.6574604,51.1276216 35.5418921,51.1257691 36.4262075,51.11697 C36.6378436,51.114886 36.7346545,51.1801846 36.7151296,51.3972674 C36.7058321,51.5010041 36.7144323,51.6062459 36.714781,51.710793 C36.7193135,53.5473719 36.7241948,55.3840665 36.7283787,57.2207612 C36.7311679,58.4004184 36.744417,59.5803072 36.7273327,60.759617 C36.7230326,61.0555444 36.8135677,61.2228429 37.0726213,61.3579553 C37.430113,61.5444729 37.7640121,61.7755648 38.113136,61.9787544 C38.3010632,62.0880484 38.469698,62.2406431 38.6978372,62.2904275 L38.6978372,37.636877 C34.0319662,40.1662686 32.5693416,44.3167771 32.5693416,44.3167771" id="Fill-34" fill="#005096"></path>
                    <path d="M29.5712693,50.001442 C29.5712693,41.1948245 36.7377227,34.055635 45.5779718,34.055635 C47.0713945,34.055635 48.5169347,34.259635 49.888443,34.6407746 C49.888443,33.8857893 49.8892566,33.1759573 49.8879782,32.4667042 C49.8872808,32.061946 49.8864673,32.0569675 49.4962017,31.9762706 C48.6295516,31.797047 47.7523255,31.7061616 46.8698696,31.6376213 C44.1850791,31.4289902 41.5829207,31.7286225 39.0737381,32.756148 C34.8160305,34.4997575 31.4111429,37.1964477 29.2309782,41.313728 C27.2879015,44.9829494 26.4715746,48.8545498 27.2439705,52.9558529 C28.3226052,58.6831355 31.4067266,63.0771242 36.4149807,66.0982229 C38.5469143,67.3843955 40.87677,68.1039528 43.3632898,68.3411809 C45.4737227,68.542518 47.5502195,68.3044795 49.6248568,67.9668722 C49.8340522,67.9328336 49.8950676,67.843106 49.8925107,67.6426951 C49.8840267,66.9857734 49.8933243,66.3286202 49.8904188,65.6715827 C49.8900701,65.5739823 49.9111059,65.4718665 49.8780995,65.3648881 C48.5097291,65.7441753 47.0676755,65.947249 45.5779718,65.947249 C36.7377227,65.947249 29.5712693,58.8080595 29.5712693,50.001442" id="Fill-36" fill="#005096"></path>
                </g>
                <rect id="Rectangle" x="0" y="0" width="150" height="150"></rect>
            </g>
        </g>
    </g>
</svg>